<svg width="78" height="81" viewBox="0 0 78 81" fill="none" xmlns="http://www.w3.org/2000/svg">
<path d="M69.2755 66.4616C68.4457 66.8769 67.4084 67.0846 66.3712 67.2923C65.5414 67.5 64.5042 67.5 63.6744 67.9154C60.3552 69.1616 58.4882 71.8616 56.6212 74.7693C54.9616 77.2616 53.5095 79.3385 51.2276 80.377C50.1904 80.7923 49.1531 81 48.1159 80.7923C46.0414 80.5846 43.7595 79.3385 42.5148 77.8846C41.2701 76.4308 40.2329 74.5616 39.4031 72.2769C39.1957 71.6539 38.9882 70.8231 38.7808 70.2C38.5733 69.5769 38.5733 68.7462 38.3659 68.1231C38.3659 67.9154 38.3659 67.9154 38.3659 67.7077C37.5361 62.7231 37.7435 58.1539 38.5733 54.4154C40.0255 54.2077 41.4776 53.5846 42.7223 52.9616C42.7223 52.9616 44.7967 51.7154 44.7967 51.5077C45.0042 51.3 45.2116 51.0923 45.4191 50.8846C46.2489 50.2616 47.0787 49.4308 47.701 48.6C47.9084 48.6 49.3606 46.3154 49.1531 46.3154C49.1531 46.1077 49.3606 46.1077 49.3606 45.9C49.7755 45.0693 49.9829 44.2385 50.1904 43.4077C52.6797 43.4077 55.584 44.2385 58.9031 45.6923C63.6744 47.7693 67.4084 51.5077 69.4829 56.2846C69.6903 56.7 69.8978 57.1154 70.1052 57.7385C70.3127 58.1539 70.3127 58.5693 70.5201 58.9846V59.1923C71.5574 61.8923 71.5574 65.2154 69.2755 66.4616Z" fill="#595BBC"/>
<path d="M23.8446 78.9231C22.8073 77.8847 22.185 76.6385 21.5627 74.977C20.9403 73.5231 20.318 72.0693 19.2807 70.8231C17.8286 69.1616 15.9616 68.1231 13.8871 67.5001C12.6424 67.0847 11.3978 66.877 10.1531 66.4616L9.53075 66.2539C5.58926 65.4231 3.0999 63.9693 2.27011 61.8924C1.23288 59.1924 3.0999 55.8693 3.92968 54.6231C5.17437 52.9616 6.62649 51.5078 8.28607 50.2616C8.70096 49.8462 9.11585 49.6385 9.73819 49.2231C10.1531 48.8078 10.7754 48.6001 11.1903 48.1847C13.2648 46.9385 15.7542 45.9001 18.2435 45.277C20.9403 44.6539 23.4297 44.2385 25.919 44.2385C25.919 45.277 26.1265 46.3154 26.3339 47.3539C26.3339 47.5616 26.5414 47.977 26.5414 48.1847C26.5414 48.3924 26.7488 48.6001 26.7488 48.8078C26.9563 49.2231 27.1637 49.6385 27.3712 50.0539C27.3712 50.2616 27.5786 50.2616 27.5786 50.4693L29.0307 51.9231C31.7276 54.4154 35.2542 54.6231 35.669 54.6231C34.8393 58.777 34.8393 63.5539 35.669 68.7462C35.8765 69.9924 36.0839 71.2385 36.4988 72.277C35.2542 74.7693 33.802 77.2616 31.5201 78.9231C29.2382 80.377 25.919 80.7924 23.8446 78.9231Z" fill="#595BBC"/>
<path d="M0.403015 36.7616C0.817909 35.9308 1.6477 35.3077 2.47748 34.4769C3.09982 33.8539 3.72216 33.2308 4.3445 32.6077C6.41897 29.9077 6.62642 26.3769 6.83387 23.0539C6.83387 20.1462 7.04131 17.4462 8.49344 15.3692C9.11578 14.5385 9.94557 13.7077 10.9828 13.2923C12.6424 12.4615 15.1317 12.2539 17.2062 12.8769C18.4509 13.0846 19.4881 13.7077 20.7328 14.5385C21.3551 14.9539 22.1849 15.5769 22.8073 15.9923C23.6371 16.6154 24.4668 17.4462 25.2966 18.4846C25.5041 18.6923 25.5041 18.9 25.7115 18.9C29.2381 23.0539 31.7275 27.4154 32.9722 31.3616L32.7647 31.5692C32.3498 31.7769 31.9349 31.9846 31.52 32.4C31.3126 32.4 31.3126 32.6077 31.1051 32.6077C30.8977 32.8154 30.6903 33.0231 30.2754 33.2308C30.0679 33.4385 26.5413 36.5539 25.919 41.3308C23.0147 41.3308 20.1105 41.7462 17.2062 42.5769C13.6796 43.6154 10.3605 45.0692 7.66365 46.9385C6.00408 46.1077 4.3445 45.0692 2.89238 43.8231C1.02536 41.9539 -0.841666 39.0462 0.403015 36.7616Z" fill="#595BBC"/>
<path d="M22.1848 6.64618C22.3923 4.36157 23.4295 2.28464 25.0891 1.45388C25.0891 1.45388 25.0891 1.45388 25.2965 1.45388C27.371 0.415414 30.0678 1.03849 32.7646 1.86926C34.6316 2.28464 36.4986 2.90772 38.5731 2.90772C41.0625 2.90772 43.3444 2.07695 45.6263 1.45388C47.7008 0.830798 49.5678 0.207721 51.4348 0.207721C56.2061 2.89977e-05 60.9774 3.94618 62.4295 9.34618C62.8444 11.0077 63.0518 12.6693 62.8444 14.5385C62.0146 14.9539 60.9774 15.3693 60.355 15.7846C56.8284 17.8616 47.0784 24.0923 43.3444 31.1539C42.9295 30.9462 38.3657 29.4923 35.6689 30.5308C34.2167 26.1693 31.7274 21.6 27.9933 17.2385C26.5412 15.3693 24.8816 13.9154 23.222 12.877C22.5997 10.8 22.1848 8.72311 22.1848 6.64618Z" fill="#595BBC"/>
<path d="M45.2115 35.5154C45.6264 35.9308 46.0413 36.3462 46.4562 36.9692C46.6637 37.1769 46.8711 37.3846 46.8711 37.8C47.0786 38.2154 47.286 38.6308 47.4935 39.0462C47.7009 39.4616 47.7009 40.0846 47.7009 40.5C47.7009 40.7077 47.7009 40.9154 47.7009 41.1231C47.7009 41.3308 47.7009 41.5385 47.7009 41.9539C47.7009 42.1616 47.7009 42.3692 47.7009 42.5769C47.7009 42.9923 47.4935 43.4077 47.4935 43.6154C47.4935 43.8231 47.4935 43.8231 47.286 44.0308C47.0786 44.4462 47.0786 44.8616 46.8711 45.2769C46.6637 45.6923 46.4562 46.1077 46.0413 46.5231L45.8339 46.7308C45.6264 47.1462 45.2115 47.5616 44.7967 47.9769C44.3818 48.3923 43.9669 48.8077 43.552 49.0154C43.3445 49.2231 43.1371 49.4308 42.9296 49.4308C42.7222 49.4308 42.7222 49.6385 42.5147 49.6385C42.5147 49.6385 42.3073 49.6385 42.3073 49.8462C41.685 50.2616 40.8552 50.6769 40.2328 51.0923C39.8179 51.3 39.6105 51.3 39.1956 51.5077C38.5732 51.7154 38.1584 51.9231 37.536 51.9231C37.1211 51.9231 36.4988 52.1308 36.0839 51.9231H35.8764C34.8392 51.9231 33.802 51.7154 32.9722 51.5077C32.5573 51.3 32.3498 51.3 31.9349 51.0923C30.8977 50.6769 30.2754 49.8462 29.8605 49.2231C29.8605 49.0154 29.653 49.0154 29.653 48.8077C29.4456 48.3923 29.2381 47.9769 29.0307 47.5616V47.3539C29.0307 46.7308 29.0307 46.5231 29.0307 46.1077C28.8232 45.4846 28.8232 45.0692 28.8232 44.4462C28.8232 44.0308 28.8232 43.4077 28.8232 42.9923C28.8232 42.5769 29.0307 41.9539 29.0307 41.5385C29.2381 40.5 29.653 39.4616 30.2754 38.4231C30.4828 38.2154 30.6903 37.8 30.6903 37.5923C30.8977 37.1769 31.1052 36.7616 31.5201 36.5539C31.7275 36.3462 31.9349 35.9308 32.3498 35.7231C32.5573 35.5154 32.7647 35.3077 32.9722 35.3077L33.1796 35.1L33.3871 34.8923C33.5945 34.8923 33.5945 34.6846 33.802 34.6846C34.0094 34.4769 34.4243 34.2692 34.6318 34.2692C34.8392 34.2692 34.8392 34.0616 35.0466 34.0616C35.4615 33.8539 35.8764 33.6462 36.2913 33.6462C36.4988 33.6462 36.4988 33.6462 36.7062 33.6462C37.3286 33.4385 37.9509 33.4385 38.5732 33.4385C38.7807 33.4385 38.9881 33.4385 39.1956 33.4385C39.8179 33.4385 40.6477 33.6462 41.2701 33.8539C41.685 33.8539 41.8924 34.0616 42.3073 34.2692C42.5147 34.4769 42.9296 34.4769 43.1371 34.6846C43.3445 34.6846 43.3445 34.8923 43.552 34.8923C43.552 34.8923 43.7594 34.8923 43.7594 35.1C44.1743 35.3077 44.3818 35.5154 44.7967 35.7231C45.0041 35.3077 45.2115 35.3077 45.2115 35.5154Z" fill="#DBD4A5"/>
<path d="M72.5946 55.6615C70.3127 50.0538 65.7489 45.4846 60.3553 42.9923C57.2436 41.5385 54.5468 40.9154 52.2648 40.7077C51.8499 40.7077 51.2276 40.7077 50.8127 40.7077C50.8127 40.0846 50.8127 39.6692 50.6053 39.0462C50.6053 38.6308 50.3978 38.0077 50.1904 37.5923C49.9829 37.1769 49.7755 36.7615 49.568 36.3462C49.568 36.1385 46.6638 32.8154 45.834 32.4C46.4563 31.3615 47.0787 30.1154 47.9085 29.0769C48.5308 28.2462 49.3606 27.4154 50.1904 26.5846C53.3021 23.4692 57.451 20.5615 61.5999 18.2769C61.8074 18.0692 62.0148 18.0692 62.2223 17.8615C62.6372 17.6538 63.2595 17.2385 63.8819 17.0308C64.2967 16.8231 64.9191 16.6154 65.334 16.4077C66.5787 15.9923 67.8233 15.7846 69.068 15.9923C72.8021 16.6154 75.2914 20.5615 75.9138 24.3C76.7436 26.5846 76.7436 29.0769 76.7436 31.7769C76.7436 33.4385 76.7436 35.3077 76.951 37.1769C77.1584 38.4231 77.1584 39.8769 77.3659 41.1231C77.5733 42.9923 77.7808 44.6538 77.9882 46.3154C77.9882 48.6 77.7808 51.7154 75.7063 54C74.8765 54.6231 73.8393 55.4538 72.5946 55.6615Z" fill="#595BBC"/>
</svg>
