<svg width="16" height="14" viewBox="0 0 16 14" fill="none" xmlns="http://www.w3.org/2000/svg">
<path d="M14.1193 7.52935L14.128 7.53868L7.99998 13.6667L1.87198 7.53868L1.88065 7.52935C1.16902 6.69971 0.797207 5.6318 0.839705 4.5396C0.882204 3.44741 1.33588 2.41162 2.10981 1.63979C2.88375 0.867957 3.92078 0.417111 5.01309 0.377592C6.10539 0.338072 7.17229 0.712799 7.99998 1.42668C8.82767 0.712799 9.89456 0.338072 10.9869 0.377592C12.0792 0.417111 13.1162 0.867957 13.8901 1.63979C14.6641 2.41162 15.1178 3.44741 15.1603 4.5396C15.2028 5.6318 14.8309 6.69971 14.1193 7.52935Z" fill="#DBD4A5"/>
</svg>
