<svg width="14" height="14" viewBox="0 0 14 14" fill="none" xmlns="http://www.w3.org/2000/svg">
<path d="M6.99992 0.333252C8.81125 0.333252 9.03725 0.339919 9.74792 0.373252C10.4579 0.406585 10.9413 0.517919 11.3666 0.683252C11.8066 0.852585 12.1773 1.08192 12.5479 1.45192C12.8869 1.78518 13.1492 2.18831 13.3166 2.63325C13.4813 3.05792 13.5933 3.54192 13.6266 4.25192C13.6579 4.96259 13.6666 5.18859 13.6666 6.99992C13.6666 8.81125 13.6599 9.03725 13.6266 9.74792C13.5933 10.4579 13.4813 10.9413 13.3166 11.3666C13.1497 11.8118 12.8873 12.215 12.5479 12.5479C12.2146 12.8868 11.8115 13.1491 11.3666 13.3166C10.9419 13.4813 10.4579 13.5933 9.74792 13.6266C9.03725 13.6579 8.81125 13.6666 6.99992 13.6666C5.18859 13.6666 4.96259 13.6599 4.25192 13.6266C3.54192 13.5933 3.05859 13.4813 2.63325 13.3166C2.18814 13.1496 1.78494 12.8872 1.45192 12.5479C1.11286 12.2147 0.85054 11.8116 0.683252 11.3666C0.517919 10.9419 0.406585 10.4579 0.373252 9.74792C0.341919 9.03725 0.333252 8.81125 0.333252 6.99992C0.333252 5.18859 0.339919 4.96259 0.373252 4.25192C0.406585 3.54125 0.517919 3.05859 0.683252 2.63325C0.850076 2.18804 1.11245 1.7848 1.45192 1.45192C1.78503 1.11274 2.1882 0.850405 2.63325 0.683252C3.05859 0.517919 3.54125 0.406585 4.25192 0.373252C4.96259 0.341919 5.18859 0.333252 6.99992 0.333252ZM6.99992 3.66659C6.11586 3.66659 5.26802 4.01777 4.6429 4.6429C4.01777 5.26802 3.66659 6.11586 3.66659 6.99992C3.66659 7.88397 4.01777 8.73182 4.6429 9.35694C5.26802 9.98206 6.11586 10.3333 6.99992 10.3333C7.88397 10.3333 8.73182 9.98206 9.35694 9.35694C9.98206 8.73182 10.3333 7.88397 10.3333 6.99992C10.3333 6.11586 9.98206 5.26802 9.35694 4.6429C8.73182 4.01777 7.88397 3.66659 6.99992 3.66659ZM11.3333 3.49992C11.3333 3.2789 11.2455 3.06694 11.0892 2.91066C10.9329 2.75438 10.7209 2.66659 10.4999 2.66659C10.2789 2.66659 10.0669 2.75438 9.91066 2.91066C9.75438 3.06694 9.66659 3.2789 9.66659 3.49992C9.66659 3.72093 9.75438 3.93289 9.91066 4.08917C10.0669 4.24545 10.2789 4.33325 10.4999 4.33325C10.7209 4.33325 10.9329 4.24545 11.0892 4.08917C11.2455 3.93289 11.3333 3.72093 11.3333 3.49992ZM6.99992 4.99992C7.53035 4.99992 8.03906 5.21063 8.41413 5.5857C8.78921 5.96078 8.99992 6.46949 8.99992 6.99992C8.99992 7.53035 8.78921 8.03906 8.41413 8.41413C8.03906 8.78921 7.53035 8.99992 6.99992 8.99992C6.46949 8.99992 5.96078 8.78921 5.5857 8.41413C5.21063 8.03906 4.99992 7.53035 4.99992 6.99992C4.99992 6.46949 5.21063 5.96078 5.5857 5.5857C5.96078 5.21063 6.46949 4.99992 6.99992 4.99992Z" fill="#DBD4A5"/>
</svg>
