<svg width="95" height="45" viewBox="0 0 95 45" fill="none" xmlns="http://www.w3.org/2000/svg">
<g clip-path="url(#clip0_0_385)">
<path d="M39.7773 24.0236C39.4194 24.7928 39.0318 25.6212 38.6144 26.5088C38.1969 27.3668 37.69 28.1952 37.1235 28.9348C36.5569 29.6745 35.8711 30.2662 35.0958 30.7395C34.3206 31.2129 33.3962 31.4496 32.293 31.4496C31.309 31.4496 30.4442 31.1537 29.6988 30.5324C28.9533 29.9111 28.5657 28.994 28.5359 27.7514C28.5359 27.1892 28.5955 26.5679 28.7446 25.9171C28.8937 25.2662 29.1024 24.6153 29.3708 23.994C29.6392 23.3727 29.9672 22.7514 30.325 22.1597C30.6828 21.5679 31.1002 21.0058 31.5475 20.4733C32.0544 19.9111 32.5911 19.3786 33.1875 18.9052C33.7839 18.4319 34.3802 18.0768 34.9766 17.8401C35.5729 17.6035 36.1693 17.4851 36.7358 17.4851C37.3024 17.4851 37.8093 17.633 38.2565 17.9585C38.6144 18.2543 38.8529 18.6094 38.9125 19.0532C38.9722 19.4969 38.9125 19.9703 38.7038 20.5029C38.4951 21.0354 38.1671 21.5679 37.7198 22.1301C37.2726 22.6626 36.7358 23.1952 36.1097 23.639C35.7817 23.8756 35.4238 24.0827 35.0064 24.2898C34.5889 24.4969 34.1118 24.6745 33.6646 24.8224C33.1875 24.9703 32.7402 25.0887 32.3228 25.207C31.9053 25.2958 31.5773 25.3549 31.309 25.3549C31.1599 25.71 31.0108 26.2129 30.8915 26.8046C30.7722 27.3963 30.7424 27.9881 30.7722 28.5502C30.8021 29.1123 30.981 29.6153 31.2493 30.0591C31.5177 30.4733 31.9948 30.71 32.6508 30.71C33.5155 30.71 34.2908 30.4437 34.9766 29.9407C35.6624 29.4378 36.2886 28.8461 36.8253 28.136C37.362 27.4259 37.8093 26.7159 38.1969 25.9466C38.5845 25.207 38.8827 24.5561 39.1213 24.0532C39.2107 23.8756 39.3002 23.7277 39.4194 23.639C39.5387 23.5502 39.6282 23.491 39.7474 23.491C39.8369 23.491 39.8965 23.5502 39.9562 23.639C39.8965 23.6685 39.8667 23.8165 39.7773 24.0236ZM35.6922 22.8993C36.2289 22.4555 36.6464 21.9526 37.0042 21.42C37.362 20.8875 37.6005 20.3549 37.7198 19.9111C37.8391 19.4378 37.8689 19.0532 37.8093 18.7573C37.7198 18.4319 37.5409 18.2839 37.2129 18.3135C36.8849 18.3135 36.4675 18.5206 35.9307 18.9348C35.394 19.349 34.7082 20.0295 33.9031 20.9762C33.3664 21.5975 32.8893 22.278 32.4719 22.9881C32.0544 23.7277 31.7264 24.2603 31.5475 24.6153C31.7264 24.6153 31.965 24.5857 32.293 24.5265C32.621 24.4674 32.9489 24.349 33.3664 24.2011C33.754 24.0532 34.1715 23.8756 34.5591 23.6685C34.9468 23.4319 35.3344 23.1656 35.6922 22.8993Z" fill="#DBD4A5"/>
<path d="M52.8671 24.1124C52.5689 24.7042 52.2111 25.4142 51.7937 26.2426C51.3762 27.071 50.8693 27.8698 50.3326 28.6391C49.7959 29.4083 49.1697 30.0592 48.5137 30.5917C47.8577 31.1243 47.1421 31.4201 46.3966 31.4201C46.0686 31.4201 45.7108 31.361 45.3232 31.213C44.9654 31.0947 44.6374 30.8284 44.3988 30.503C44.1603 30.1479 44.0112 29.6746 43.9515 29.1124C43.8919 28.5207 44.0112 27.7811 44.3094 26.8639C44.4585 26.3314 44.7268 25.7692 45.0846 25.0888C45.4424 24.4379 45.9195 23.6686 46.4563 22.7811C46.6948 22.3965 46.8141 22.0414 46.8439 21.7752C46.8737 21.4793 46.7843 21.3314 46.5457 21.2722C46.337 21.213 45.9792 21.3314 45.5021 21.5976C45.025 21.8639 44.4286 22.3373 43.6534 23.0473C42.9676 23.6391 42.1625 24.5266 41.2381 25.7397C40.3138 26.9231 39.3 28.6095 38.1967 30.7692C38.0476 31.0651 37.8687 31.213 37.66 31.2722C37.4512 31.3314 37.1232 31.361 36.7058 31.361C36.4076 31.3905 36.1691 31.3905 35.9902 31.3905C35.7814 31.3905 35.6025 31.4497 35.3938 31.5976C36.348 29.7337 37.2425 27.8994 38.0774 26.0651C38.9123 24.2604 39.8367 22.4556 40.7908 20.6805C41.2978 19.7337 41.7152 19.1124 42.073 18.7278C42.4308 18.3728 42.9377 18.1953 43.5639 18.2249C43.8323 18.2544 44.1006 18.284 44.369 18.3728C44.6374 18.432 44.9355 18.432 45.2039 18.4024C44.9057 18.5503 44.5777 18.9053 44.1603 19.4083C43.7428 19.9408 43.3254 20.5326 42.9079 21.2426C42.4905 21.9527 42.0432 22.6923 41.6258 23.4911C41.2083 24.2899 40.8207 25.0296 40.4629 25.7397C40.8505 25.2367 41.3574 24.6746 41.9239 23.9941C42.5203 23.3432 43.1167 22.7515 43.713 22.2189C44.1901 21.8047 44.7566 21.361 45.4723 20.8876C46.1581 20.4142 46.8737 19.9704 47.5595 19.6154C48.2752 19.2308 48.9312 18.9349 49.5275 18.7278C50.1537 18.5207 50.6308 18.4615 50.9588 18.5799C50.1835 19.9704 49.4679 21.3314 48.8119 22.574C48.5137 23.1065 48.2453 23.6686 47.977 24.2604C47.7086 24.8225 47.4403 25.3846 47.2017 25.9172C46.9632 26.4497 46.7544 26.9527 46.6054 27.426C46.4264 27.8994 46.337 28.284 46.2774 28.6391C46.1283 29.4379 46.1283 29.9704 46.2774 30.2071C46.4264 30.4438 46.6352 30.5621 46.9035 30.5621C47.4104 30.5621 47.9173 30.2959 48.4839 29.7337C49.0206 29.2012 49.5573 28.5503 50.0642 27.8107C50.5711 27.071 51.0184 26.3314 51.406 25.5621C51.7937 24.8225 52.0919 24.2308 52.3006 23.8166C52.4497 23.4911 52.6286 23.3432 52.8373 23.4615C53.046 23.4615 53.046 23.6982 52.8671 24.1124Z" fill="#DBD4A5"/>
<path d="M66.5834 24.1126C66.2852 24.7043 65.9274 25.4144 65.5099 26.2132C65.0925 27.012 64.6154 27.7812 64.0787 28.5505C63.5419 29.2901 63.0052 29.941 62.4089 30.4735C61.8125 31.0061 61.246 31.3019 60.6496 31.3611C60.3216 31.3907 59.9936 31.3315 59.6358 31.1836C59.278 31.0357 58.9798 30.7694 58.7413 30.4144C58.5027 30.0297 58.3834 29.5268 58.3238 28.8463C58.294 28.1954 58.4133 27.3374 58.6816 26.3315C58.3536 26.8641 57.966 27.4558 57.4591 28.1363C56.9522 28.8167 56.4155 29.438 55.8489 29.9706C55.1035 30.7102 54.3878 31.1244 53.7617 31.2428C53.1355 31.3611 52.5689 31.2724 52.1217 30.9469C51.6744 30.6215 51.3464 30.1185 51.1675 29.4084C50.9588 28.6984 50.929 27.87 51.078 26.9232C51.1973 25.9765 51.5253 24.941 52.0322 23.8167C52.5391 22.6925 53.2846 21.5386 54.2984 20.3848C54.8649 19.6747 55.5806 19.083 56.3856 18.58C57.2205 18.0771 58.0554 17.7516 58.8903 17.515C59.7252 17.3079 60.5602 17.2783 61.3652 17.4262C62.1703 17.5741 62.8263 17.9587 63.3929 18.5505C63.691 18.8463 63.7507 19.1126 63.6612 19.3789C63.5419 19.6451 63.3034 19.7339 62.9754 19.7043C62.7667 18.9647 62.3492 18.5505 61.6932 18.3729C61.0671 18.225 60.3514 18.3434 59.6358 18.728C58.7413 19.2309 57.8467 19.9706 56.8925 21.0061C55.9384 22.0416 55.1333 23.1363 54.4177 24.2901C54.3282 24.4084 54.2089 24.6155 54.0598 24.9114C53.9107 25.2073 53.7318 25.5327 53.5828 25.9173C53.4038 26.3019 53.2548 26.6866 53.1057 27.0712C52.9566 27.4854 52.8671 27.87 52.8075 28.225C52.6882 28.9055 52.7479 29.3789 52.9566 29.7043C53.1653 30.0297 53.4337 30.1777 53.7915 30.1777C54.1493 30.1777 54.5667 30.0297 55.014 29.7339C55.4911 29.438 55.9682 29.0238 56.4155 28.4617C57.1013 27.6333 57.7274 26.7457 58.2642 25.8286C58.8307 24.9114 59.3674 23.9647 59.9042 23.0179C60.3514 22.1895 60.7391 21.5386 61.0969 21.1244C61.4547 20.6806 61.9318 20.5031 62.558 20.5327C62.8263 20.5623 63.0947 20.5919 63.363 20.6806C63.6314 20.7398 63.9296 20.7398 64.1979 20.7102C63.9892 20.9173 63.7209 21.3019 63.363 21.8641C63.0052 22.4262 62.6474 23.0475 62.2598 23.7576C61.8721 24.4676 61.5441 25.2073 61.2161 25.9469C60.8882 26.6866 60.6794 27.367 60.5602 27.9587C60.2322 29.5268 60.3812 30.296 60.9478 30.296C61.3652 30.3256 61.8125 30.0889 62.3194 29.5564C62.8263 29.0238 63.3034 28.4025 63.7805 27.6925C64.2576 26.9528 64.7048 26.2428 65.0925 25.5031C65.4801 24.7635 65.7783 24.2013 65.987 23.7576C66.1659 23.4321 66.3448 23.2842 66.5237 23.3729C66.7623 23.4913 66.7623 23.6984 66.5834 24.1126Z" fill="#DBD4A5"/>
<path d="M76.2446 12.071C75.3202 14.0828 74.2468 16.1242 72.9944 18.1361C71.7421 20.1479 70.1319 22.0118 68.2236 23.7574C68.1043 24.0828 67.985 24.497 67.8359 24.9112C67.6868 25.355 67.5377 25.8284 67.4185 26.3017C67.1203 27.4556 67.0905 28.4023 67.2694 29.0532C67.4483 29.7337 67.7763 30.1479 68.2236 30.355C68.6708 30.5621 69.2076 30.5029 69.8039 30.2366C70.4003 29.9704 70.937 29.4674 71.4737 28.7278C71.8017 28.2544 72.0999 27.781 72.3981 27.3372C72.6963 26.8639 72.9646 26.4201 73.233 25.9763C73.4715 25.5325 73.7101 25.1183 73.889 24.7633C74.0977 24.3787 74.2468 24.0828 74.3661 23.8165C74.545 23.4911 74.7239 23.3432 74.9326 23.3727C75.1413 23.4023 75.1413 23.639 74.9624 24.0236C74.7239 24.5562 74.4257 25.2071 74.0082 26.0355C73.6206 26.8639 73.1435 27.6627 72.577 28.4615C72.0104 29.2307 71.3544 29.9112 70.609 30.4733C69.8636 31.0355 68.969 31.3313 67.985 31.3313C67.2396 31.3313 66.673 31.1834 66.2854 30.9171C65.8679 30.6508 65.5996 30.2958 65.4207 29.852C65.2418 29.4082 65.1821 28.9053 65.1821 28.3727C65.1821 27.8402 65.2418 27.2781 65.361 26.6863C65.4505 26.1242 65.5996 25.5621 65.7487 25.0295C65.8978 24.497 66.0468 24.0236 66.1363 23.639C66.4643 22.5443 66.8221 21.3905 67.2694 20.1775C67.7167 18.9645 68.1937 17.7514 68.7305 16.5384C69.2672 15.3254 69.8039 14.1716 70.3705 13.0177C70.937 11.8639 71.5334 10.8284 72.0999 9.9112C72.8155 8.75736 73.561 7.89937 74.3362 7.39641C75.1115 6.89345 75.7675 6.71594 76.3042 6.89345C76.841 7.07097 77.1391 7.57393 77.2286 8.43192C77.2584 9.31949 76.9602 10.5325 76.2446 12.071ZM75.6482 11.4793C75.8271 11.0355 75.9762 10.5621 76.1253 10.0295C76.2446 9.497 76.3042 9.11239 76.2744 8.81653C76.2446 8.52067 76.0955 8.40233 75.857 8.49109C75.6184 8.57984 75.2308 8.99405 74.7239 9.73369C74.2468 10.4142 73.7101 11.3017 73.1137 12.426C72.5173 13.5503 71.921 14.7041 71.3544 15.9467C70.7879 17.1893 70.2512 18.3727 69.7443 19.5562C69.2374 20.7396 68.8497 21.7159 68.5217 22.4852C69.2374 21.7751 69.9232 20.9763 70.609 20.0887C71.2948 19.2011 71.9508 18.2544 72.577 17.2781C73.2032 16.3017 73.7697 15.3254 74.3064 14.3195C74.8133 13.3432 75.2606 12.3964 75.6482 11.4793Z" fill="#DBD4A5"/>
<path d="M74.8728 27.9586C74.6939 28.6094 74.6343 29.1716 74.7237 29.6449C74.8132 30.1183 75.1412 30.3846 75.6779 30.4142C75.9761 30.4733 76.2743 30.4142 76.6321 30.2367C76.9601 30.0591 77.2582 29.8816 77.467 29.6745C78.123 29.0236 78.7492 28.1657 79.3753 27.071C80.0015 25.9763 80.5979 24.8816 81.1346 23.8165C81.2837 23.4615 81.4626 23.3136 81.6415 23.4319C81.8204 23.5503 81.8204 23.787 81.6415 24.1716C81.3731 24.7041 81.0451 25.3846 80.6575 26.1834C80.2699 26.9822 79.7928 27.781 79.2561 28.5503C78.7193 29.3195 78.1528 29.9704 77.4968 30.5029C76.8706 31.0355 76.1848 31.3017 75.4692 31.3017C74.7237 31.3017 74.187 31.1242 73.7695 30.7988C73.3819 30.4733 73.1135 30.0296 72.9943 29.5266C72.875 29.0236 72.8452 28.4615 72.9048 27.8994C72.9645 27.3373 73.1135 26.7751 73.3223 26.2426L75.827 19.9112C75.9761 19.5562 75.9761 19.2012 75.7972 18.9053C75.6183 18.5799 75.499 18.3728 75.4393 18.284L77.5862 18.2544C78.2124 18.2544 78.5702 18.3728 78.6299 18.5799C78.6895 18.787 78.6299 19.142 78.4212 19.6154L75.2903 26.8935C75.2306 27.071 75.171 27.2189 75.0815 27.3668C75.0219 27.4852 74.9623 27.6331 74.9324 27.7515C74.9324 27.8106 74.9026 27.8994 74.8728 27.9586ZM80.3891 15C80.2997 15.4438 80.091 15.8284 79.7331 16.1242C79.3753 16.4497 78.9579 16.5976 78.5106 16.5976C78.0633 16.5976 77.7055 16.4497 77.4372 16.1242C77.1688 15.7988 77.0793 15.4438 77.1092 15C77.1986 14.5562 77.4073 14.1716 77.7652 13.8757C78.123 13.5503 78.5404 13.4023 78.9877 13.4023C79.435 13.4023 79.7928 13.5503 80.0611 13.8757C80.3891 14.1716 80.4786 14.5562 80.3891 15Z" fill="#DBD4A5"/>
<path d="M94.8808 24.1124C94.5826 24.7042 94.2248 25.4142 93.8074 26.2426C93.3899 27.071 92.883 27.8698 92.3463 28.6391C91.8096 29.4083 91.1834 30.0592 90.5274 30.5917C89.8714 31.1243 89.1557 31.4201 88.4103 31.4201C88.0823 31.4201 87.7245 31.361 87.3368 31.213C86.979 31.0947 86.651 30.8284 86.4125 30.503C86.1739 30.1479 86.0249 29.6746 85.9652 29.1124C85.9056 28.5207 86.0249 27.7811 86.323 26.8639C86.4721 26.3314 86.7405 25.7692 87.0983 25.0888C87.4561 24.4379 87.9332 23.6686 88.4699 22.7811C88.7085 22.3965 88.8277 22.0414 88.8576 21.7752C88.8874 21.4793 88.7979 21.3314 88.5594 21.2722C88.3507 21.213 87.9928 21.3314 87.5158 21.5976C87.0387 21.8639 86.4423 22.3373 85.667 23.0473C84.9812 23.6391 84.1762 24.5266 83.2518 25.7397C82.3274 26.9231 81.3136 28.6095 80.2104 30.7692C80.0613 31.0651 79.8824 31.213 79.6736 31.2722C79.4649 31.3314 79.1369 31.361 78.7195 31.361C78.4213 31.3905 78.1827 31.3905 78.0038 31.3905C77.7951 31.3905 77.6162 31.4497 77.4075 31.5976C78.3616 29.7337 79.2562 27.8994 80.0911 26.0651C80.926 24.2604 81.8503 22.4556 82.8045 20.6805C83.3114 19.7337 83.7289 19.1124 84.0867 18.7278C84.4445 18.3728 84.9514 18.1953 85.5776 18.2249C85.846 18.2544 86.1143 18.284 86.3827 18.3728C86.651 18.432 86.9492 18.432 87.2176 18.4024C86.9194 18.5503 86.5914 18.9053 86.174 19.4083C85.7565 19.9408 85.339 20.5326 84.9216 21.2426C84.5041 21.9527 84.0569 22.6923 83.6394 23.4911C83.222 24.2899 82.8343 25.0296 82.4765 25.7397C82.8642 25.2367 83.3711 24.6746 83.9376 23.9941C84.534 23.3432 85.1303 22.7515 85.7267 22.2189C86.2038 21.8047 86.7703 21.361 87.4859 20.8876C88.1718 20.4142 88.8874 19.9704 89.5732 19.6154C90.2888 19.2308 90.9448 18.9349 91.5412 18.7278C92.1674 18.5207 92.6444 18.4615 92.9724 18.5799C92.1972 19.9704 91.4816 21.3314 90.8256 22.574C90.5274 23.1065 90.259 23.6686 89.9906 24.2604C89.7223 24.8225 89.4539 25.3846 89.2154 25.9172C88.9768 26.4497 88.7681 26.9527 88.619 27.426C88.4401 27.8994 88.3507 28.284 88.291 28.6391C88.1419 29.4379 88.1419 29.9704 88.291 30.2071C88.4401 30.4438 88.6488 30.5621 88.9172 30.5621C89.4241 30.5621 89.931 30.2959 90.4976 29.7337C91.0343 29.2012 91.571 28.5503 92.0779 27.8107C92.5848 27.071 93.0321 26.3314 93.4197 25.5621C93.8073 24.8225 94.1055 24.2308 94.3143 23.8166C94.4633 23.4911 94.6423 23.3432 94.851 23.4615C95.0597 23.4615 95.0597 23.6982 94.8808 24.1124Z" fill="#DBD4A5"/>
<path d="M37.7495 2.86965C37.6898 2.27793 37.4513 1.7158 37.0338 1.21285C36.6164 0.709887 36.02 0.354858 35.3342 0.147757C34.6186 -0.0593435 33.8135 -0.0593435 32.8891 0.147757C31.9648 0.354858 31.0106 0.887402 29.967 1.7158C28.9234 2.57379 27.8797 3.78681 26.7765 5.38444C25.703 6.98208 24.6296 9.05308 23.6158 11.5975C23.079 12.9584 22.6019 14.2306 22.1249 15.3844C21.7372 16.3608 21.3496 17.3075 21.0216 18.1951C20.6638 19.0827 20.4252 19.6744 20.306 19.9407C18.2187 20.2069 16.5191 20.059 15.2369 19.556C13.9547 19.0235 13.0304 18.3134 12.434 17.3963C11.8377 16.4791 11.5693 15.4436 11.5991 14.2898C11.6289 13.1359 11.9271 12.0412 12.4937 10.9762C12.5831 10.8282 12.6726 10.6803 12.762 10.5028C12.1358 10.3253 11.6886 10.0294 11.4202 9.6448C10.8835 10.2069 10.466 10.7986 10.1977 11.3904C9.66096 12.5146 9.51187 13.6389 9.75041 14.7927C9.95914 15.9466 10.4959 16.9821 11.3606 17.9288C12.1955 18.8756 13.3584 19.6152 14.7598 20.1773C16.1911 20.7395 17.8311 20.9762 19.7096 20.9466C18.994 22.3963 18.338 23.7276 17.682 24.9111C17.0558 26.0945 16.3402 27.2779 15.5947 28.4614C14.8791 28.343 14.1038 28.2543 13.2391 28.1951C12.3744 28.1359 11.5097 28.1359 10.6449 28.1655C9.78023 28.1951 8.91551 28.2838 8.08061 28.4022C7.2457 28.5205 6.47044 28.6685 5.7548 28.8756C3.99555 29.4081 2.68356 30.059 1.7592 30.8282C0.864661 31.627 0.29812 32.4259 0.0595763 33.2247C-0.149149 34.0235 -0.0895135 34.7927 0.327938 35.5324C0.715571 36.272 1.34175 36.8341 2.14683 37.2779C2.98174 37.6921 3.96573 37.8992 5.15845 37.8992C6.32135 37.8992 7.60352 37.5442 8.97514 36.8933C10.2573 36.3016 11.4799 35.4436 12.6428 34.3489C13.8057 33.2543 14.9089 31.9821 15.9227 30.562C17.1751 30.7986 18.4274 31.0649 19.7096 31.3312C20.9918 31.627 22.2143 31.9525 23.4667 32.3963C24.6892 32.8105 25.8819 33.3134 27.015 33.9051C28.1481 34.4969 29.1917 35.2069 30.1459 36.0353C30.8019 36.5975 31.3088 37.2483 31.6666 37.988C32.0244 38.7276 32.2331 39.4673 32.3524 40.1773C32.4419 40.8874 32.4717 41.5679 32.4121 42.1892C32.3524 42.8105 32.2331 43.2838 32.0841 43.6389C31.9946 43.7868 31.9051 43.9939 31.7859 44.2306C31.6666 44.4673 31.607 44.6448 31.5772 44.8223C31.5772 44.9702 31.6368 45.0886 31.7561 45.1182C31.8753 45.1477 32.1735 45.059 32.591 44.8223C32.9488 44.6448 33.2768 44.2898 33.575 43.7572C33.8135 43.343 33.9328 42.7809 33.9328 42.0412C33.9328 41.3016 33.8135 40.5324 33.5451 39.6744C33.2768 38.8164 32.8593 37.9584 32.263 37.0708C31.6964 36.1833 30.9212 35.3844 29.9968 34.6448C29.0724 33.9347 28.0885 33.2838 26.9852 32.6921C25.8819 32.0708 24.7787 31.5383 23.6456 31.0649C22.5125 30.5915 21.3794 30.1478 20.2761 29.7927C19.1729 29.4081 18.1293 29.1122 17.1453 28.8756C17.2645 28.6389 17.4136 28.4318 17.5627 28.2247C17.7118 28.0176 17.8311 27.8105 17.9802 27.5738C18.6958 26.3312 19.2922 25.1773 19.7991 24.1418C20.306 23.1063 20.8427 22.0117 21.439 20.8874C22.8107 20.6507 24.2121 20.2365 25.5837 19.6152C26.9554 18.9939 28.2972 18.2543 29.5495 17.3667C30.8019 16.4791 31.9648 15.4732 33.0084 14.3785C34.0819 13.2543 34.9764 12.0708 35.7218 10.8282C36.4673 9.58563 37.0338 8.28385 37.3917 6.95249C37.7197 5.50279 37.8687 4.17142 37.7495 2.86965ZM8.37878 35.7691C7.18607 36.3312 6.0828 36.6566 5.06899 36.7158C4.05518 36.775 3.22028 36.6862 2.53447 36.4199C1.84865 36.1537 1.37157 35.7691 1.07339 35.2661C0.775207 34.7631 0.745389 34.201 0.983933 33.6389C1.22248 33.0472 1.7592 32.485 2.62392 31.8933C3.45882 31.3016 4.68136 30.8282 6.26171 30.4436C7.54388 30.1182 8.88569 29.9111 10.317 29.9111C11.7482 29.8815 13.1198 30.0294 14.402 30.2957C12.5533 32.8992 10.5555 34.7336 8.37878 35.7691ZM34.9168 9.05308C34.1117 10.7986 33.0382 12.3963 31.6964 13.846C30.3546 15.2957 28.8339 16.5383 27.1343 17.5738C25.4347 18.6093 23.6754 19.3194 21.946 19.704C22.3336 18.8756 22.751 18.0472 23.1387 17.2483C23.5561 16.4495 23.9139 15.7099 24.2419 15.059C24.6296 14.3194 25.0172 13.5797 25.375 12.9288C26.8957 9.97024 28.2972 7.72172 29.6092 6.12409C30.9212 4.55604 32.0542 3.49095 33.0084 2.89924C33.9626 2.33711 34.708 2.15959 35.2746 2.39628C35.8411 2.63296 36.1095 3.07675 36.1095 3.72764C36.1393 5.53237 35.7517 7.30752 34.9168 9.05308Z" fill="#DBD4A5"/>
<path d="M45.6512 37.3964H44.4287V36.8342H47.5596V37.3964H46.3371V40.4733H45.6512V37.3964Z" fill="#77705C"/>
<path d="M54.9246 39.9112V40.4733H52.1814V36.8047H54.865V37.3668H52.8672V38.3136H54.6563V38.8757H52.8672V39.8816H54.9246V39.9112Z" fill="#77705C"/>
<path d="M62.0809 40.4733L61.0671 39.0828L60.0831 40.4733H59.3079L60.6795 38.6094L59.3973 36.8047H60.1726L61.1268 38.1065L62.0511 36.8047H62.7966L61.5144 38.5798L62.886 40.4733H62.0809Z" fill="#77705C"/>
<path d="M68.1041 37.3964H66.8816V36.8342H70.0125V37.3964H68.7899V40.4733H68.1041V37.3964Z" fill="#77705C"/>
<path d="M74.6045 36.8342H75.2903V40.5029H74.6045V36.8342Z" fill="#77705C"/>
<path d="M80.3892 36.8342H81.075V39.9111H83.0131V40.4733H80.3892V36.8342Z" fill="#77705C"/>
<path d="M90.4081 39.9112V40.4733H87.635V36.8047H90.3186V37.3668H88.3208V38.3136H90.1099V38.8757H88.3208V39.8816H90.4081V39.9112Z" fill="#77705C"/>
<path d="M21.5881 9.49716C21.4689 9.55633 21.3198 9.58592 21.1707 9.6155C21.0514 9.64509 20.9023 9.64509 20.7831 9.70426C20.306 9.88177 20.0376 10.2664 19.7692 10.6806C19.5307 11.0356 19.322 11.3315 18.994 11.4794C18.8449 11.5386 18.6958 11.5682 18.5467 11.5386C18.2485 11.509 17.9205 11.3315 17.7416 11.1244C17.5627 10.9173 17.4136 10.651 17.2944 10.3256C17.2645 10.2368 17.2347 10.1185 17.2049 10.0297C17.1751 9.94095 17.1751 9.8226 17.1453 9.73385C17.1453 9.70426 17.1453 9.70426 17.1453 9.67467C17.026 8.96461 17.0558 8.31373 17.1751 7.78118C17.3838 7.7516 17.5925 7.66284 17.7714 7.57408C17.7714 7.57408 18.0696 7.39657 18.0696 7.36698C18.0994 7.3374 18.1293 7.30781 18.1591 7.27822C18.2783 7.18947 18.3976 7.07112 18.4871 6.95278C18.5169 6.95278 18.7256 6.62734 18.6958 6.62734C18.6958 6.59775 18.7256 6.59775 18.7256 6.56816C18.7853 6.44982 18.8151 6.33148 18.8449 6.21313C19.2027 6.21313 19.6202 6.33148 20.0972 6.53858C20.7831 6.83444 21.3198 7.36698 21.618 8.04745C21.6478 8.10663 21.6776 8.1658 21.7074 8.25456C21.7372 8.31373 21.7372 8.3729 21.767 8.43207V8.46166C21.9161 8.81669 21.9161 9.29006 21.5881 9.49716Z" fill="#595BBC"/>
<path d="M15.0581 11.2721C14.909 11.1242 14.8196 10.9467 14.7301 10.71C14.6407 10.5029 14.5512 10.2958 14.4021 10.1183C14.1934 9.88159 13.925 9.73366 13.6268 9.64491C13.4479 9.58574 13.269 9.55615 13.0901 9.49698L13.0007 9.46739C12.4341 9.34905 12.0763 9.14195 11.957 8.84609C11.8079 8.46148 12.0763 7.9881 12.1956 7.81059C12.3745 7.5739 12.5832 7.3668 12.8218 7.18929C12.8814 7.13012 12.941 7.10053 13.0305 7.04136C13.0901 6.98219 13.1796 6.9526 13.2392 6.89343C13.5374 6.71591 13.8952 6.56799 14.253 6.47923C14.6407 6.39047 14.9985 6.3313 15.3563 6.3313C15.3563 6.47923 15.3861 6.62716 15.4159 6.77509C15.4159 6.80467 15.4457 6.86384 15.4457 6.89343C15.4457 6.92301 15.4756 6.9526 15.4756 6.98219C15.5054 7.04136 15.5352 7.10053 15.565 7.1597C15.565 7.18929 15.5948 7.18929 15.5948 7.21887L15.8036 7.45556C16.1912 7.81059 16.6981 7.84017 16.7577 7.84017C16.6385 8.43189 16.6385 9.11236 16.7577 9.85201C16.7875 10.0295 16.8174 10.207 16.877 10.355C16.6981 10.6508 16.4894 11.0059 16.1614 11.2425C15.8334 11.4496 15.3563 11.5384 15.0581 11.2721Z" fill="#595BBC"/>
<path d="M11.6887 5.23664C11.7483 5.1183 11.8676 5.02954 11.9869 4.9112C12.0763 4.82244 12.1658 4.73369 12.2552 4.64493C12.5534 4.26031 12.5832 3.75735 12.6131 3.28398C12.6131 2.86978 12.6429 2.48516 12.8516 2.18931C12.941 2.07096 13.0603 1.95262 13.2094 1.89345C13.448 1.77511 13.8058 1.77511 14.1039 1.83428C14.2829 1.89345 14.4618 1.95262 14.6407 2.07096C14.7301 2.13014 14.8494 2.21889 14.9389 2.27806C15.0581 2.36682 15.1774 2.48516 15.2967 2.63309C15.3265 2.66268 15.3265 2.69227 15.3563 2.69227C15.8632 3.28398 16.221 3.90528 16.3999 4.46741L16.3701 4.497C16.3105 4.52658 16.2508 4.55617 16.1912 4.61534C16.1614 4.61534 16.1614 4.64493 16.1316 4.64493C16.1018 4.67451 16.0719 4.7041 16.0123 4.73369C15.9825 4.76327 15.4756 5.20706 15.3861 5.88753C14.9687 5.88753 14.5512 5.9467 14.1338 6.06505C13.6269 6.21298 13.1498 6.42008 12.7621 6.68635C12.5236 6.56801 12.2851 6.42008 12.0763 6.24256C11.7781 6.00588 11.5098 5.56209 11.6887 5.23664Z" fill="#595BBC"/>
<path d="M14.8196 0.976381C14.8494 0.650937 14.9985 0.355079 15.237 0.236736C15.237 0.236736 15.237 0.236736 15.2668 0.236736C15.565 0.0888068 15.9527 0.177564 16.3403 0.295907C16.6087 0.355079 16.877 0.443836 17.1752 0.443836C17.533 0.443836 17.861 0.325493 18.189 0.236736C18.4872 0.147978 18.7556 0.059221 19.0239 0.059221C19.7097 0.0296352 20.3955 0.591765 20.6043 1.361C20.6639 1.59768 20.6937 1.83437 20.6639 2.10064C20.5446 2.15981 20.3955 2.21898 20.3061 2.27816C19.7992 2.57401 18.3977 3.46159 17.861 4.4675C17.8014 4.43792 17.1454 4.23082 16.7577 4.37875C16.549 3.75745 16.1912 3.10656 15.6545 2.48526C15.4458 2.21898 15.2072 2.01188 14.9687 1.86395C14.8792 1.5681 14.8196 1.27224 14.8196 0.976381Z" fill="#595BBC"/>
<path d="M18.1293 5.05929C18.1889 5.11846 18.2486 5.17763 18.3082 5.26639C18.338 5.29597 18.3678 5.32556 18.3678 5.38473C18.3977 5.4439 18.4275 5.50307 18.4573 5.56224C18.4871 5.62142 18.4871 5.71017 18.4871 5.76935C18.4871 5.79893 18.4871 5.82852 18.4871 5.8581C18.4871 5.88769 18.4871 5.91727 18.4871 5.97645C18.4871 6.00603 18.4871 6.03562 18.4871 6.0652C18.4871 6.12437 18.4573 6.18355 18.4573 6.21313C18.4573 6.24272 18.4573 6.24272 18.4275 6.2723C18.3977 6.33148 18.3977 6.39065 18.3678 6.44982C18.338 6.50899 18.3082 6.56816 18.2486 6.62733L18.2188 6.65692C18.1889 6.71609 18.1293 6.77526 18.0697 6.83443C18.01 6.89361 17.9504 6.95278 17.8908 6.98236C17.8609 7.01195 17.8311 7.04153 17.8013 7.04153C17.7715 7.04153 17.7715 7.07112 17.7417 7.07112C17.7417 7.07112 17.7118 7.07112 17.7118 7.10071C17.6224 7.15988 17.5031 7.21905 17.4137 7.27822C17.354 7.30781 17.3242 7.30781 17.2646 7.33739C17.1751 7.36698 17.1155 7.39656 17.026 7.39656C16.9664 7.39656 16.8769 7.42615 16.8173 7.39656H16.7875C16.6384 7.39656 16.4893 7.36698 16.37 7.33739C16.3104 7.30781 16.2806 7.30781 16.221 7.27822C16.0719 7.21905 15.9824 7.10071 15.9228 7.01195C15.9228 6.98236 15.893 6.98236 15.893 6.95278C15.8631 6.89361 15.8333 6.83443 15.8035 6.77526V6.74568C15.8035 6.6865 15.8035 6.62733 15.8035 6.56816C15.7737 6.4794 15.7737 6.42023 15.7737 6.33148C15.7737 6.2723 15.7737 6.18355 15.7737 6.12437C15.7737 6.0652 15.8035 5.97645 15.8035 5.91727C15.8333 5.76935 15.893 5.62142 15.9824 5.47349C16.0122 5.4439 16.042 5.38473 16.042 5.35514C16.0719 5.29597 16.1017 5.2368 16.1613 5.20721C16.1911 5.17763 16.221 5.11846 16.2806 5.08887C16.3104 5.05929 16.3402 5.0297 16.37 5.0297L16.3999 5.00011L16.4297 4.97053C16.4595 4.97053 16.4595 4.94094 16.4893 4.94094C16.5191 4.91136 16.5788 4.88177 16.6086 4.88177C16.6384 4.88177 16.6384 4.85218 16.6682 4.85218C16.7279 4.8226 16.7875 4.79301 16.8471 4.79301C16.8769 4.79301 16.8769 4.79301 16.9068 4.79301C16.9962 4.76343 17.0857 4.76343 17.1751 4.76343C17.2049 4.76343 17.2348 4.76343 17.2646 4.76343C17.354 4.76343 17.4733 4.79301 17.5628 4.8226C17.6224 4.8226 17.6522 4.85219 17.7118 4.88177C17.7417 4.91136 17.8013 4.91136 17.8311 4.94094C17.8609 4.94094 17.8609 4.97053 17.8908 4.97053C17.8908 4.97053 17.9206 4.97053 17.9206 5.00011C17.9802 5.0297 18.01 5.05929 18.0697 5.08887C18.0995 5.0297 18.1293 5.05929 18.1293 5.05929Z" fill="#DBD4A5"/>
<path d="M22.0653 7.95864C21.7373 7.15982 21.0813 6.50893 20.306 6.1539C19.8587 5.9468 19.4711 5.85805 19.1431 5.82846C19.0835 5.82846 18.994 5.82846 18.9344 5.82846C18.9344 5.7397 18.9344 5.68053 18.9046 5.59177C18.9046 5.5326 18.8747 5.44384 18.8449 5.38467C18.8151 5.3255 18.7853 5.26633 18.7555 5.20716C18.7555 5.17757 18.338 4.7042 18.2188 4.64503C18.3082 4.4971 18.3977 4.31958 18.5169 4.17165C18.6064 4.05331 18.7257 3.93497 18.8449 3.81662C19.2922 3.37284 19.8886 2.95864 20.4849 2.63319C20.5147 2.60361 20.5446 2.60361 20.5744 2.57402C20.634 2.54444 20.7235 2.48526 20.8129 2.45568C20.8726 2.42609 20.962 2.39651 21.0216 2.36692C21.2005 2.30775 21.3795 2.27816 21.5584 2.30775C22.0951 2.39651 22.4529 2.95864 22.5424 3.49118C22.602 3.84621 22.602 4.20124 22.602 4.58586C22.602 4.82254 22.602 5.08881 22.6318 5.35509C22.6616 5.5326 22.6616 5.7397 22.6914 5.91722C22.7213 6.18349 22.7511 6.42018 22.7809 6.65686C22.7809 6.98231 22.7511 7.42609 22.4529 7.75154C22.3933 7.81071 22.2442 7.89947 22.0653 7.95864Z" fill="#595BBC"/>
<path d="M33.8733 36.7752L36.7954 35.9172L34.1715 37.2782C38.3162 39.2604 41.119 33.9942 41.119 33.9942C34.8871 32.8699 33.9926 35.7693 33.8733 36.7752Z" fill="#86BC94"/>
<path d="M14.8792 26.3018L12.5832 24.29L15.1177 25.7692C14.6406 21.213 8.64722 21.6568 8.64722 21.6568C11.0327 27.4852 13.9548 26.716 14.8792 26.3018Z" fill="#86BC94"/>
</g>
<defs>
<clipPath id="clip0_0_385">
<rect width="95" height="45" fill="white"/>
</clipPath>
</defs>
</svg>
