<svg width="15" height="12" viewBox="0 0 15 12" fill="none" xmlns="http://www.w3.org/2000/svg">
<path d="M0 6.27531C0.615173 3.20661 3.55164 0.881104 7.08038 0.881104C10.6091 0.881104 13.5449 3.20661 14.1608 6.27531C13.5456 9.34402 10.6091 11.6695 7.08038 11.6695C3.55164 11.6695 0.615828 9.34402 0 6.27531ZM7.08038 9.2721C7.94822 9.2721 8.78052 8.95637 9.39418 8.39436C10.0078 7.83235 10.3526 7.07011 10.3526 6.27531C10.3526 5.48052 10.0078 4.71827 9.39418 4.15627C8.78052 3.59426 7.94822 3.27853 7.08038 3.27853C6.21254 3.27853 5.38025 3.59426 4.76659 4.15627C4.15293 4.71827 3.80818 5.48052 3.80818 6.27531C3.80818 7.07011 4.15293 7.83235 4.76659 8.39436C5.38025 8.95637 6.21254 9.2721 7.08038 9.2721ZM7.08038 8.07338C6.55968 8.07338 6.0603 7.88395 5.69211 7.54674C5.32391 7.20954 5.11706 6.75219 5.11706 6.27531C5.11706 5.79844 5.32391 5.34109 5.69211 5.00389C6.0603 4.66668 6.55968 4.47724 7.08038 4.47724C7.60109 4.47724 8.10047 4.66668 8.46866 5.00389C8.83685 5.34109 9.0437 5.79844 9.0437 6.27531C9.0437 6.75219 8.83685 7.20954 8.46866 7.54674C8.10047 7.88395 7.60109 8.07338 7.08038 8.07338Z" fill="#423F34"/>
</svg>
