<svg width="46" height="32" viewBox="0 0 46 32" fill="none" xmlns="http://www.w3.org/2000/svg">
<path d="M33.0625 8.72726C33.8564 8.72726 34.5 9.37848 34.5 10.1818C34.5 10.9851 33.8564 11.6364 33.0625 11.6364C32.2686 11.6364 31.625 10.9851 31.625 10.1818C31.625 9.37848 32.2686 8.72726 33.0625 8.72726Z" fill="black"/>
<path d="M24.4375 20.3636C25.2314 20.3636 25.875 21.0148 25.875 21.8182C25.875 22.6215 25.2314 23.2727 24.4375 23.2727C23.6436 23.2727 23 22.6215 23 21.8182C23 21.0148 23.6436 20.3636 24.4375 20.3636Z" fill="black"/>
<path d="M43.125 32H15.8125C15.4262 32 15.0668 31.8455 14.7973 31.5727L12.9375 29.6909L11.0777 31.5727C10.8082 31.8455 10.4398 32 10.0625 32H2.875C1.29375 32 0 30.6909 0 29.0909V2.90909C0 1.3 1.29375 0 2.875 0H10.0625C10.4488 0 10.8082 0.154545 11.0777 0.427273L12.9375 2.30909L14.7973 0.427273C15.0668 0.154545 15.4352 0 15.8125 0H43.125C44.7152 0 46 1.3 46 2.90909V29.0909C46 30.6909 44.7152 32 43.125 32ZM14.375 5.81818H11.5V8.72727H14.375V5.81818ZM14.375 11.6364H11.5V14.5455H14.375V11.6364ZM14.375 17.4545H11.5V20.3636H14.375V17.4545ZM14.375 23.2727H11.5V26.1818H14.375V23.2727ZM24.4375 26.1818C26.8184 26.1818 28.75 24.2273 28.75 21.8182C28.75 19.4091 26.8184 17.4545 24.4375 17.4545C22.0566 17.4545 20.125 19.4091 20.125 21.8182C20.125 24.2273 22.0566 26.1818 24.4375 26.1818ZM21.5625 5.81818C21.2391 5.81818 20.9156 5.92727 20.6461 6.15455C20.0352 6.67273 19.9543 7.58182 20.4664 8.2L34.8414 25.6545C35.3535 26.2727 36.2609 26.3455 36.8629 25.8364C37.4738 25.3182 37.5547 24.4091 37.0426 23.7818L22.6676 6.32727C22.3801 6 21.9758 5.81818 21.5625 5.81818ZM33.0625 5.81818C30.6816 5.81818 28.75 7.77273 28.75 10.1818C28.75 12.5909 30.6816 14.5455 33.0625 14.5455C35.4434 14.5455 37.375 12.5909 37.375 10.1818C37.375 7.77273 35.4434 5.81818 33.0625 5.81818Z" fill="#423F34"/>
</svg>
