<svg width="48" height="42" viewBox="0 0 48 42" fill="none" xmlns="http://www.w3.org/2000/svg">
<path d="M21 12V9H3C1.35 9 0 10.35 0 12V18H21.6375C21.2156 16.1625 21 14.1938 21 12Z" fill="#423F34"/>
<path d="M47.8781 24C45.8344 27.15 42.7125 29.8313 38.2406 32.4C37.5562 32.7937 36.7781 33 36 33C35.2219 33 34.4438 32.7938 33.7688 32.4094C29.2969 29.8313 26.175 27.15 24.1312 24H0V39C0 40.6594 1.35 42 3 42H45C46.6594 42 48 40.6594 48 39V24H47.8781ZM13.5 33H7.5C6.675 33 6 32.325 6 31.5C6 30.675 6.675 30 7.5 30H13.5C14.325 30 15 30.675 15 31.5C15 32.325 14.325 33 13.5 33Z" fill="#423F34"/>
<path d="M47.0906 4.62185L36.5906 0.121851C36.2062 -0.0375244 35.7844 -0.0375244 35.4094 0.121851L24.9094 4.62185C24.3563 4.85623 24 5.39998 24 5.99998V12C24 20.25 27.0469 25.0781 35.25 29.8031C35.4844 29.9344 35.7375 30 36 30C36.2625 30 36.5156 29.9344 36.75 29.8031C44.9531 25.0875 48 20.2687 48 12V5.99998C48 5.39998 47.6437 4.85623 47.0906 4.62185ZM41.6719 11.4375L35.6719 18.9375C35.3813 19.2937 34.95 19.5 34.5 19.5C34.4812 19.5 34.4531 19.5 34.4344 19.5C33.9562 19.4812 33.5156 19.2375 33.2531 18.8344L30.2531 14.3344C29.7938 13.6406 29.9813 12.7125 30.6656 12.2531C31.35 11.7937 32.2781 11.9812 32.7469 12.6656L34.6125 15.4594L39.3281 9.56248C39.8438 8.9156 40.7906 8.81248 41.4375 9.3281C42.0844 9.84373 42.1875 10.7906 41.6719 11.4375Z" fill="#423F34"/>
</svg>
