<svg width="42" height="46" viewBox="0 0 42 46" fill="none" xmlns="http://www.w3.org/2000/svg">
<path d="M40.2382 39.9833H13.6715C13.1467 38.7693 11.9769 37.8232 10.49 37.3858V7.1362C10.49 6.75239 10.3042 6.39536 9.9762 6.12758L2.97919 0.415051C2.30136 -0.13835 1.18621 -0.13835 0.508376 0.415051C-0.169459 0.968453 -0.169459 1.87889 0.508376 2.43229L7.00247 7.73423V37.3948C4.96897 37.9839 3.50397 39.5548 3.50397 41.4203C3.50397 43.7767 5.85452 45.7047 8.75172 45.7047C11.0257 45.7047 12.9499 44.5087 13.6824 42.8484H40.2382C41.2003 42.8484 41.9875 42.2058 41.9875 41.4203C41.9875 40.6348 41.2003 39.9833 40.2382 39.9833ZM8.75172 42.8395C7.78963 42.8395 7.00247 42.1969 7.00247 41.4114C7.00247 40.6259 7.78963 39.9833 8.75172 39.9833C9.71381 39.9833 10.501 40.6259 10.501 41.4114C10.501 42.1969 9.71381 42.8395 8.75172 42.8395Z" fill="#DBD4A5"/>
<path d="M36.7398 22.8457H29.7428V28.5583H22.7458V22.8457H15.7488C14.7867 22.8457 13.9995 23.4884 13.9995 24.2738V35.7168C14.6555 36.1185 15.2349 36.5915 15.7269 37.1271H36.7398C37.7019 37.1271 38.489 36.4844 38.489 35.6989V24.2738C38.489 23.4884 37.7019 22.8457 36.7398 22.8457Z" fill="#DBD4A5"/>
<path d="M29.7428 11.4204H24.495V14.2767H20.9965V11.4204H15.7488C14.7867 11.4204 13.9995 12.0631 13.9995 12.8486V19.9893H31.492V12.8486C31.492 12.0631 30.7048 11.4204 29.7428 11.4204Z" fill="#DBD4A5"/>
</svg>
