<svg width="46" height="46" viewBox="0 0 46 46" fill="none" xmlns="http://www.w3.org/2000/svg">
<g clip-path="url(#clip0_0_448)">
<path d="M30.1875 21.5625C27.8066 21.5625 25.875 23.4941 25.875 25.875C25.875 26.6656 26.5219 27.3125 27.3125 27.3125C28.1031 27.3125 28.75 26.6656 28.75 25.875C28.75 25.0844 29.3969 24.4375 30.1875 24.4375C30.9781 24.4375 31.625 25.0844 31.625 25.875C31.625 26.6656 32.2719 27.3125 33.0625 27.3125C33.8531 27.3125 34.5 26.6656 34.5 25.875C34.5 23.4941 32.5684 21.5625 30.1875 21.5625Z" fill="#423F34"/>
<path d="M15.8125 21.5625C13.4316 21.5625 11.5 23.4941 11.5 25.875C11.5 26.6656 12.1469 27.3125 12.9375 27.3125C13.7281 27.3125 14.375 26.6656 14.375 25.875C14.375 25.0844 15.0219 24.4375 15.8125 24.4375C16.6031 24.4375 17.25 25.0844 17.25 25.875C17.25 26.6656 17.8969 27.3125 18.6875 27.3125C19.4781 27.3125 20.125 26.6656 20.125 25.875C20.125 23.4941 18.1934 21.5625 15.8125 21.5625Z" fill="#423F34"/>
<path d="M45.4874 40.5824C43.2413 38.7047 41.8847 33.5387 41.112 28.6602C43.8702 28.2379 45.9995 25.875 45.9995 23C45.9995 19.8285 43.421 17.25 40.2495 17.25C40.2495 7.73555 32.514 0 22.9995 0C13.4851 0 5.74954 7.73555 5.74954 17.25C2.57806 17.25 -0.000457424 19.8285 -0.000457424 23C-0.000457424 25.875 2.12884 28.2379 4.88704 28.6602C4.11439 33.5387 2.75775 38.7047 0.511652 40.5824C0.0444644 40.9688 -0.126239 41.6066 0.0893863 42.1727C0.296027 42.7387 0.835089 43.116 1.43704 43.116H13.4851C16.2163 44.9309 19.4867 45.991 22.9995 45.991C26.5124 45.991 29.7827 44.9309 32.514 43.116H44.562C45.164 43.116 45.7031 42.7387 45.9097 42.1727C46.1253 41.6156 45.9546 40.9777 45.4874 40.5824ZM37.3745 28.75C37.3745 30.7984 36.9343 32.7391 36.1527 34.5H27.0515C26.4585 32.8289 24.8773 31.625 22.9995 31.625C20.6187 31.625 18.687 33.5566 18.687 35.9375C18.687 38.3184 20.6187 40.25 22.9995 40.25C24.8683 40.25 26.4495 39.0461 27.0515 37.375H34.4277C31.8042 40.843 27.6804 43.125 22.9995 43.125C15.0753 43.125 8.62454 36.6742 8.62454 28.75V20.0801C17.8245 19.8555 22.8648 17.6184 25.5601 15.3094C28.4261 17.4836 32.3792 18.9301 37.3745 19.6219V28.75Z" fill="#423F34"/>
</g>
<defs>
<clipPath id="clip0_0_448">
<rect width="46" height="46" fill="white"/>
</clipPath>
</defs>
</svg>
