<svg width="24" height="24" viewBox="0 0 24 24" fill="none" xmlns="http://www.w3.org/2000/svg">
<g filter="url(#filter0_d_0_374)">
<path fill-rule="evenodd" clip-rule="evenodd" d="M-2 -9H66.0073V13.5848H-2V-9Z" fill="#B20000"/>
</g>
<g filter="url(#filter1_d_0_374)">
<path fill-rule="evenodd" clip-rule="evenodd" d="M-2 13.5847H66.0073V24.9999H-2V13.5847Z" fill="#429F00"/>
</g>
<g filter="url(#filter2_d_0_374)">
<path fill-rule="evenodd" clip-rule="evenodd" d="M-2 -9H5.53127V25H-2V-9Z" fill="white"/>
</g>
<g filter="url(#filter3_d_0_374)">
<path fill-rule="evenodd" clip-rule="evenodd" d="M-1.64136 -8.42227H-1.28273V-7.84453H-1.64136V-8.42227ZM-0.565462 -8.42227H0.510434V-7.84453H-0.565462V-8.42227ZM-0.20683 -9H0.151802V-8.42227H-0.20683V-9ZM1.58633 -9H1.94496V-8.42227H1.58633V-9ZM3.02086 -8.42227H4.09675V-7.84453H3.02086V-8.42227ZM3.37949 -9H3.73812V-8.42227H3.37949V-9ZM-0.924093 -7.84453H-0.20683V-7.27344H-0.924093V-7.84453ZM0.151802 -7.84453H0.869066V-7.27344H0.151802V-7.84453ZM2.66223 -7.84453H3.37949V-7.27344H2.66223V-7.84453ZM3.73812 -7.84453H4.45538V-7.27344H3.73812V-7.84453ZM-1.28273 -7.27344H-0.565462V-6.6957H-1.28273V-7.27344ZM0.510434 -7.27344H1.2277V-6.6957H0.510434V-7.27344ZM2.30359 -7.27344H3.02086V-6.6957H2.30359V-7.27344ZM4.09675 -7.27344H4.81402V-6.6957H4.09675V-7.27344ZM4.81402 -8.42227H5.17265V-7.84453H4.81402V-8.42227ZM-1.64136 -6.6957H-0.924093V-6.11797H-1.64136V-6.6957ZM0.869066 -6.6957H1.58633V-6.11797H0.869066V-6.6957ZM4.45538 -6.6957H5.17265V-6.11797H4.45538V-6.6957ZM-1.28273 -4.96914H-0.565462V-4.39141H-1.28273V-4.96914ZM-0.924093 -4.39141H-0.20683V-3.81367H-0.924093V-4.39141ZM0.510434 -4.9625H1.2277V-4.39141H0.510434V-4.9625ZM0.151802 -4.39141H0.869066V-3.81367H0.151802V-4.39141ZM-0.565462 -3.81367H0.510434V-3.23594H-0.565462V-3.81367Z" fill="#B20000"/>
</g>
<g filter="url(#filter4_d_0_374)">
<path fill-rule="evenodd" clip-rule="evenodd" d="M-0.20684 -3.23584H0.151792V-2.65811H-0.20684V-3.23584ZM2.30358 -4.9624H3.02085V-4.39131H2.30358V-4.9624ZM2.66222 -4.39131H3.37948V-3.81357H2.66222V-4.39131ZM4.09674 -4.9624H4.81401V-4.39131H4.09674V-4.9624ZM3.73811 -4.39131H4.45537V-3.81357H3.73811V-4.39131ZM3.02085 -3.81357H4.09674V-3.23584H3.02085V-3.81357ZM3.37948 -3.23584H3.73811V-2.65811H3.37948V-3.23584ZM1.58632 -3.82022H1.94495V-3.24248H1.58632V-3.82022ZM-2 -3.82022H-1.64137V-3.24248H-2V-3.82022ZM5.17264 -3.82022H5.53127V-3.24248H5.17264V-3.82022ZM-0.20684 -0.938184H0.151792V-0.36045H-0.20684V-0.938184ZM-0.565472 -0.35381H0.510424V0.217284H-0.565472V-0.35381ZM-0.924104 0.217284H0.869056V0.795018H-0.924104V0.217284ZM3.37948 -0.931544H3.73811V-0.35381H3.37948V-0.931544ZM3.02085 -0.35381H4.09674V0.217284H3.02085V-0.35381ZM2.66222 0.217284H4.45537V0.795018H2.66222V0.217284ZM3.02085 3.09931H4.81401V3.67705H3.02085V3.09931ZM2.30358 0.795018H4.81401V1.37275H2.30358V0.795018ZM-1.28274 0.795018H1.22769V1.37275H-1.28274V0.795018ZM-0.924104 3.67705H0.151792V4.25478H-0.924104V3.67705ZM-1.28274 3.09931H0.510424V3.67705H-1.28274V3.09931ZM3.73811 1.95713H5.53127V2.53486H3.73811V1.95713ZM3.37948 3.68369H4.45537V4.26142H3.37948V3.68369Z" fill="#B20000"/>
</g>
<g filter="url(#filter5_d_0_374)">
<path fill-rule="evenodd" clip-rule="evenodd" d="M-0.565472 4.25459H-0.20684V4.83232H-0.565472V4.25459ZM3.73811 4.25459H4.09674V4.83232H3.73811V4.25459ZM-2 1.95029H-0.20684V2.52803H-2V1.95029ZM1.22769 3.09912H2.30358V3.67685H1.22769V3.09912ZM1.58632 3.6835H1.94495V4.26123H1.58632V3.6835ZM0.510424 1.95693H3.02085V2.53467H0.510424V1.95693ZM1.94495 -6.6958H2.66222V-6.11807H1.94495V-6.6958ZM1.22769 -6.11807H2.30358V-5.54033H1.22769V-6.11807ZM0.869056 -5.54033H1.58632V-4.96924H0.869056V-5.54033ZM1.94495 -5.54033H2.66222V-4.96924H1.94495V-5.54033ZM-2 -6.11807H-1.28274V-5.54033H-2V-6.11807ZM-1.64137 -5.54033H-0.924104V-4.96924H-1.64137V-5.54033ZM4.81401 -6.11807H5.53127V-5.54697H4.81401V-6.11807ZM4.45537 -5.54697H5.17264V-4.97588H4.45537V-5.54697ZM-2 -0.367286H-1.64137V0.210448H-2V-0.367286ZM5.17264 -0.367286H5.53127V0.210448H5.17264V-0.367286ZM1.22769 4.24795H2.30358V4.82568H1.22769V4.24795ZM0.869056 4.82568H1.58632V5.39678H0.869056V4.82568ZM1.94495 4.82568H2.66222V5.39678H1.94495V4.82568ZM0.510424 5.39678H1.22769V5.97451H0.510424V5.39678ZM2.30358 5.39678H3.02085V5.97451H2.30358V5.39678ZM0.151792 5.97451H0.869056V6.55224H0.151792V5.97451ZM2.66222 5.97451H3.37948V6.55224H2.66222V5.97451ZM-0.20684 6.55889H0.510424V7.13662H-0.20684V6.55889ZM3.02085 6.55889H3.73811V7.13662H3.02085V6.55889ZM-0.924104 7.13662H0.151792V7.71435H-0.924104V7.13662ZM3.37948 7.13662H4.45537V7.71435H3.37948V7.13662ZM4.09674 6.55889H4.81401V7.13662H4.09674V6.55889ZM4.45537 5.98115H5.17264V6.55889H4.45537V5.98115ZM4.81401 5.40342H5.53127V5.98115H4.81401V5.40342ZM-1.28274 6.55889H-0.565472V7.13662H-1.28274V6.55889ZM-1.64137 5.98115H-0.924104V6.55889H-1.64137V5.98115ZM-2 5.41006H-1.28274V5.98779H-2V5.41006ZM-0.565472 7.72099H-0.20684V8.29209H-0.565472V7.72099ZM3.73811 7.72099H4.09674V8.29209H3.73811V7.72099ZM1.58632 5.99443H1.94495V6.56553H1.58632V5.99443ZM0.510424 7.72099H0.869056V8.29209H0.510424V7.72099ZM2.66222 7.72099H3.02085V8.29209H2.66222V7.72099ZM1.58632 7.72099H1.94495V8.29209H1.58632V7.72099ZM-2 7.72099H-1.64137V8.29209H-2L-2 7.72099ZM5.17264 7.72099H5.53127V8.29209H5.17264V7.72099ZM1.58632 -0.354005H1.94495V0.21709H1.58632V-0.354005ZM-0.20684 -6.11807H0.151792V-5.54033H-0.20684V-6.11807ZM3.37948 -6.11807H3.73811V-5.54033H3.37948V-6.11807ZM1.22769 -2.08721H2.30358V-1.50947H1.22769V-2.08721ZM0.510424 -1.50947H1.58632V-0.931739H0.510424V-1.50947ZM0.869056 -0.931739H1.22769V-0.354005H0.869056V-0.931739ZM0.151792 -2.08721H0.869056V-1.50947H0.151792V-2.08721ZM0.510424 -2.6583H1.58632V-2.08721H0.510424V-2.6583ZM0.869056 -3.23604H1.22769V-2.6583H0.869056V-3.23604ZM1.94495 -2.6583H3.02085V-2.08721H1.94495V-2.6583ZM2.30358 -3.23604H2.66222V-2.6583H2.30358V-3.23604ZM2.66222 -2.08721H3.37948V-1.50947H2.66222V-2.08721ZM1.94495 -1.50947H3.02085V-0.931739H1.94495V-1.50947ZM2.30358 -0.931739H2.66222V-0.354005H2.30358V-0.931739ZM3.73811 -2.08721H4.45537V-1.50947H3.73811V-2.08721ZM4.09674 -2.6583H5.17264V-2.08721H4.09674V-2.6583ZM4.81401 -2.08721H5.53127V-1.50947H4.81401V-2.08721ZM4.09674 -1.50947H5.17264V-0.931739H4.09674V-1.50947ZM4.45537 -0.931739H4.81401V-0.354005H4.45537V-0.931739ZM4.45537 -3.23604H4.81401V-2.6583H4.45537V-3.23604ZM-2 -2.09385H-1.28274V-1.51611H-2V-2.09385ZM-1.64137 -2.66494H-0.565472V-2.09385H-1.64137V-2.66494ZM-0.924104 -2.09385H-0.20684V-1.51611H-0.924104V-2.09385ZM-1.64137 -1.51611H-0.565472V-0.93838H-1.64137V-1.51611Z" fill="#B20000"/>
</g>
<g filter="url(#filter6_d_0_374)">
<path fill-rule="evenodd" clip-rule="evenodd" d="M-1.28274 -0.931543H-0.924104V-0.353808H-1.28274V-0.931543ZM-1.28274 -3.23584H-0.924104V-2.65811H-1.28274V-3.23584ZM-1.64137 1.37275H-0.20684V1.95049H-1.64137V1.37275ZM0.151792 1.37275H1.58632V1.95049H0.151792V1.37275ZM1.94495 1.37275H3.37948V1.95049H1.94495V1.37275ZM3.73811 1.37275H5.17264V1.95049H3.73811V1.37275ZM0.869056 2.52822H2.66222V3.09932H0.869056V2.52822ZM-1.64137 2.52822H0.151792V3.09932H-1.64137V2.52822ZM3.37948 2.52822H5.17264V3.09932H3.37948V2.52822ZM5.17264 4.83252H5.53127V5.40361H5.17264V4.83252ZM-2 4.83252H-1.64137V5.40361H-2V4.83252ZM-1.64137 24.4224H-1.28274V23.8513H-1.64137V24.4224ZM-0.565472 24.4224H0.510424V23.8513H-0.565472V24.4224ZM-0.20684 25.0001H0.151792V24.4224H-0.20684V25.0001ZM1.58632 25.0001H1.94495V24.4224H1.58632V25.0001ZM3.02085 24.4224H4.09674V23.8446H3.02085V24.4224ZM3.37948 25.0001H3.73811V24.4224H3.37948V25.0001ZM-0.924104 23.8446H-0.20684V23.2735H-0.924104V23.8446ZM0.151792 23.8446H0.869056V23.2735H0.151792V23.8446ZM2.66222 23.8446H3.37948V23.2735H2.66222V23.8446ZM3.73811 23.8446H4.45537V23.2735H3.73811V23.8446ZM0.510424 23.2735H1.22769V22.6958H0.510424V23.2735ZM2.30358 23.2735H3.02085V22.6958H2.30358V23.2735ZM4.09674 23.2735H4.81401V22.6958H4.09674V23.2735ZM4.81401 24.4224H5.17264V23.8446H4.81401V24.4224ZM-1.64137 22.6958H-0.924104V22.1181H-1.64137V22.6958ZM0.869056 22.6958H1.58632V22.1181H0.869056V22.6958ZM4.45537 22.6958H5.17264V22.1181H4.45537V22.6958ZM-1.28274 20.9692H-0.565472V20.3915H-1.28274V20.9692ZM-0.924104 20.3915H-0.20684V19.8138H-0.924104V20.3915ZM0.510424 20.9692H1.22769V20.3915H0.510424V20.9692ZM0.151792 20.3915H0.869056V19.8138H0.151792V20.3915ZM-0.565472 19.8138H0.510424V19.236H-0.565472V19.8138ZM-0.20684 19.236H0.151792V18.6649H-0.20684V19.236ZM2.30358 20.9626H3.02085V20.3915H2.30358V20.9626ZM2.66222 20.3915H3.37948V19.8138H2.66222V20.3915ZM4.09674 20.9692H4.81401V20.3915H4.09674V20.9692ZM3.73811 20.3915H4.45537V19.8138H3.73811V20.3915ZM3.02085 19.8138H4.09674V19.236H3.02085V19.8138ZM3.37948 19.236H3.73811V18.6649H3.37948V19.236ZM1.58632 19.8204H1.94495V19.2427H1.58632V19.8204ZM-2 19.8204H-1.64137V19.2427H-2V19.8204ZM5.17264 19.8204H5.53127V19.2427H5.17264V19.8204ZM-0.20684 16.9384H0.151792V16.3606H-0.20684V16.9384ZM-0.565472 16.354H0.510424V15.7829H-0.565472V16.354ZM-0.924104 15.7829H0.869056V15.2052H-0.924104V15.7829ZM3.37948 16.9317H3.73811V16.354H3.37948V16.9317Z" fill="#B20000"/>
</g>
<g filter="url(#filter7_d_0_374)">
<path fill-rule="evenodd" clip-rule="evenodd" d="M3.02085 16.3539H4.09674V15.7828H3.02085V16.3539ZM2.66222 15.7828H4.45537V15.205H2.66222V15.7828ZM3.02085 12.9007H4.81401V12.3164H3.02085V12.9007ZM2.30358 15.205H4.81401V14.6273H2.30358V15.205ZM-1.28274 15.205H1.22769V14.6273H-1.28274V15.205ZM-0.924104 12.323H0.151792V11.7453H-0.924104V12.323ZM-1.28274 12.9007H0.510424V12.3164H-1.28274V12.9007ZM3.73811 14.0429H5.53127V13.4652H3.73811V14.0429ZM3.37948 12.3164H4.45537V11.7386H3.37948V12.3164ZM-2 14.0429H-0.20684V13.4652H-2V14.0429ZM1.22769 12.8941H2.30358V12.3164H1.22769V12.8941ZM1.58632 12.3164H1.94495V11.7386H1.58632V12.3164ZM0.510424 14.0429H3.02085V13.4652H0.510424V14.0429ZM1.94495 22.689H2.66222V22.1113H1.94495V22.689ZM1.22769 22.1113H2.30358V21.5468H1.22769V22.1113ZM0.869056 21.5335H1.58632V20.9558H0.869056V21.5335ZM1.94495 21.5335H2.66222V20.9558H1.94495V21.5335ZM-2 22.1179H-1.28274V21.5468H-2V22.1179ZM-1.64137 21.5402H-0.924104V20.9691H-1.64137V21.5402ZM4.81401 22.1179H5.53127V21.5468H4.81401V22.1179ZM4.45537 21.5402H5.17264V20.9691H4.45537V21.5402ZM-2 16.3671H-1.64137V15.7894H-2V16.3671ZM5.17264 16.3671H5.53127V15.7894H5.17264V16.3671ZM0.869056 11.1742H1.58632V10.6031H0.869056V11.1742ZM1.94495 11.1742H2.66222V10.6031H1.94495V11.1742ZM0.510424 10.6031H1.22769V10.0253H0.510424V10.6031ZM2.30358 10.6031H3.02085V10.0253H2.30358V10.6031ZM0.151792 10.0253H0.869056V9.44761H0.151792V10.0253ZM2.66222 10.0253H3.37948V9.44761H2.66222V10.0253ZM-0.20684 9.44097H0.510424V8.86323H-0.20684V9.44097ZM3.02085 9.44097H3.73811V8.86323H3.02085V9.44097ZM-0.924104 8.86323H0.151792V8.2855H-0.924104V8.86323ZM3.37948 8.86323H4.45537V8.2855H3.37948V8.86323ZM4.09674 9.44097H4.81401V8.86323H4.09674V9.44097ZM4.45537 10.0187H5.17264V9.44097H4.45537V10.0187ZM4.81401 10.5964H5.53127V10.0187H4.81401V10.5964ZM-1.28274 9.44097H-0.565472V8.86323H-1.28274V9.44097ZM-1.64137 10.0187H-0.924104V9.44097H-1.64137V10.0187ZM-2 10.5898H-1.28274V10.0121H-2V10.5898ZM-0.565472 8.27886H-0.20684V7.70776H-0.565472V8.27886ZM1.58632 10.0054H1.94495V9.43433H1.58632V10.0054ZM1.58632 16.3472H1.94495V15.7761H1.58632V16.3472ZM-0.20684 22.1113H0.151792V21.5468H-0.20684V22.1113ZM3.37948 22.1113H3.73811V21.5468H3.37948V22.1113ZM1.22769 18.0937H2.30358V17.516H1.22769V18.0937ZM0.510424 17.516H1.58632V16.9382H0.510424V17.516ZM0.869056 16.9382H1.22769V16.3605H0.869056V16.9382ZM0.151792 18.0937H0.869056V17.516H0.151792V18.0937ZM0.510424 18.6582H1.58632V18.0937H0.510424V18.6582ZM0.869056 19.2359H1.22769V18.6648H0.869056V19.2359ZM1.94495 18.6582H3.02085V18.0937H1.94495V18.6582ZM2.30358 19.2359H2.66222V18.6648H2.30358V19.2359ZM2.66222 18.0871H3.37948V17.5093H2.66222V18.0871ZM1.94495 17.5093H3.02085V16.9316H1.94495V17.5093ZM2.30358 16.9316H2.66222V16.3539H2.30358V16.9316ZM3.73811 18.0937H4.45537V17.516H3.73811V18.0937ZM4.09674 18.6582H5.17264V18.0937H4.09674V18.6582ZM4.81401 18.0871H5.53127V17.5093H4.81401V18.0871ZM4.09674 17.5093H5.17264V16.9316H4.09674V17.5093ZM4.45537 16.9316H4.81401V16.3539H4.45537V16.9316ZM4.45537 19.2359H4.81401V18.6648H4.45537V19.2359ZM-2 18.0937H-1.28274V17.516H-2V18.0937ZM-1.64137 18.6582H-0.565472V18.0937H-1.64137V18.6582Z" fill="#B20000"/>
</g>
<g filter="url(#filter8_d_0_374)">
<path fill-rule="evenodd" clip-rule="evenodd" d="M-0.924104 18.0871H-0.20684V17.5094H-0.924104V18.0871ZM-1.64137 17.5094H-0.565472V16.9316H-1.64137V17.5094ZM-1.28274 16.9316H-0.924104V16.3539H-1.28274V16.9316ZM-1.28274 19.2359H-0.924104V18.6648H-1.28274V19.2359ZM-1.64137 14.6273H-0.20684V14.0496H-1.64137V14.6273ZM0.151792 14.6273H1.58632V14.0496H0.151792V14.6273ZM1.94495 14.6273H3.37948V14.0496H1.94495V14.6273ZM3.73811 14.6273H5.17264V14.0496H3.73811V14.6273ZM0.869056 13.4719H2.66222V12.9008H0.869056V13.4719ZM-1.64137 13.4719H0.151792V12.9008H-1.64137V13.4719ZM3.37948 13.4719H5.17264V12.9008H3.37948V13.4719ZM5.17264 11.1742H5.53127V10.5898H5.17264V11.1742ZM-2 11.1742H-1.64137V10.5898H-2V11.1742ZM1.22769 8.28555H1.58632V8.86328H1.22769V8.28555ZM1.94495 8.28555H2.30358V8.86328H1.94495V8.28555ZM1.94495 7.13672H2.30358V7.71445H1.94495V7.13672ZM1.22769 7.13672H1.58632V7.71445H1.22769V7.13672ZM-1.28274 22.6957H-0.565472V23.2734H-1.28274V22.6957ZM3.73811 11.7453H4.09674V11.1676H3.73811V11.7453ZM-0.565472 11.7453H-0.20684V11.1676H-0.565472V11.7453ZM1.22769 11.1676H2.30358V11.7453H1.22769V11.1676Z" fill="#B20000"/>
</g>
<defs>
<filter id="filter0_d_0_374" x="-6" y="-9" width="76.0073" height="30.5847" filterUnits="userSpaceOnUse" color-interpolation-filters="sRGB">
<feFlood flood-opacity="0" result="BackgroundImageFix"/>
<feColorMatrix in="SourceAlpha" type="matrix" values="0 0 0 0 0 0 0 0 0 0 0 0 0 0 0 0 0 0 127 0" result="hardAlpha"/>
<feOffset dy="4"/>
<feGaussianBlur stdDeviation="2"/>
<feComposite in2="hardAlpha" operator="out"/>
<feColorMatrix type="matrix" values="0 0 0 0 0 0 0 0 0 0 0 0 0 0 0 0 0 0 0.25 0"/>
<feBlend mode="normal" in2="BackgroundImageFix" result="effect1_dropShadow_0_374"/>
<feBlend mode="normal" in="SourceGraphic" in2="effect1_dropShadow_0_374" result="shape"/>
</filter>
<filter id="filter1_d_0_374" x="-6" y="13.5847" width="76.0073" height="19.4153" filterUnits="userSpaceOnUse" color-interpolation-filters="sRGB">
<feFlood flood-opacity="0" result="BackgroundImageFix"/>
<feColorMatrix in="SourceAlpha" type="matrix" values="0 0 0 0 0 0 0 0 0 0 0 0 0 0 0 0 0 0 127 0" result="hardAlpha"/>
<feOffset dy="4"/>
<feGaussianBlur stdDeviation="2"/>
<feComposite in2="hardAlpha" operator="out"/>
<feColorMatrix type="matrix" values="0 0 0 0 0 0 0 0 0 0 0 0 0 0 0 0 0 0 0.25 0"/>
<feBlend mode="normal" in2="BackgroundImageFix" result="effect1_dropShadow_0_374"/>
<feBlend mode="normal" in="SourceGraphic" in2="effect1_dropShadow_0_374" result="shape"/>
</filter>
<filter id="filter2_d_0_374" x="-6" y="-9" width="15.5312" height="42" filterUnits="userSpaceOnUse" color-interpolation-filters="sRGB">
<feFlood flood-opacity="0" result="BackgroundImageFix"/>
<feColorMatrix in="SourceAlpha" type="matrix" values="0 0 0 0 0 0 0 0 0 0 0 0 0 0 0 0 0 0 127 0" result="hardAlpha"/>
<feOffset dy="4"/>
<feGaussianBlur stdDeviation="2"/>
<feComposite in2="hardAlpha" operator="out"/>
<feColorMatrix type="matrix" values="0 0 0 0 0 0 0 0 0 0 0 0 0 0 0 0 0 0 0.25 0"/>
<feBlend mode="normal" in2="BackgroundImageFix" result="effect1_dropShadow_0_374"/>
<feBlend mode="normal" in="SourceGraphic" in2="effect1_dropShadow_0_374" result="shape"/>
</filter>
<filter id="filter3_d_0_374" x="-5.64136" y="-9" width="14.814" height="13.7642" filterUnits="userSpaceOnUse" color-interpolation-filters="sRGB">
<feFlood flood-opacity="0" result="BackgroundImageFix"/>
<feColorMatrix in="SourceAlpha" type="matrix" values="0 0 0 0 0 0 0 0 0 0 0 0 0 0 0 0 0 0 127 0" result="hardAlpha"/>
<feOffset dy="4"/>
<feGaussianBlur stdDeviation="2"/>
<feComposite in2="hardAlpha" operator="out"/>
<feColorMatrix type="matrix" values="0 0 0 0 0 0 0 0 0 0 0 0 0 0 0 0 0 0 0.25 0"/>
<feBlend mode="normal" in2="BackgroundImageFix" result="effect1_dropShadow_0_374"/>
<feBlend mode="normal" in="SourceGraphic" in2="effect1_dropShadow_0_374" result="shape"/>
</filter>
<filter id="filter4_d_0_374" x="-6" y="-4.9624" width="15.5312" height="17.2239" filterUnits="userSpaceOnUse" color-interpolation-filters="sRGB">
<feFlood flood-opacity="0" result="BackgroundImageFix"/>
<feColorMatrix in="SourceAlpha" type="matrix" values="0 0 0 0 0 0 0 0 0 0 0 0 0 0 0 0 0 0 127 0" result="hardAlpha"/>
<feOffset dy="4"/>
<feGaussianBlur stdDeviation="2"/>
<feComposite in2="hardAlpha" operator="out"/>
<feColorMatrix type="matrix" values="0 0 0 0 0 0 0 0 0 0 0 0 0 0 0 0 0 0 0.25 0"/>
<feBlend mode="normal" in2="BackgroundImageFix" result="effect1_dropShadow_0_374"/>
<feBlend mode="normal" in="SourceGraphic" in2="effect1_dropShadow_0_374" result="shape"/>
</filter>
<filter id="filter5_d_0_374" x="-6" y="-6.6958" width="15.5312" height="22.9878" filterUnits="userSpaceOnUse" color-interpolation-filters="sRGB">
<feFlood flood-opacity="0" result="BackgroundImageFix"/>
<feColorMatrix in="SourceAlpha" type="matrix" values="0 0 0 0 0 0 0 0 0 0 0 0 0 0 0 0 0 0 127 0" result="hardAlpha"/>
<feOffset dy="4"/>
<feGaussianBlur stdDeviation="2"/>
<feComposite in2="hardAlpha" operator="out"/>
<feColorMatrix type="matrix" values="0 0 0 0 0 0 0 0 0 0 0 0 0 0 0 0 0 0 0.25 0"/>
<feBlend mode="normal" in2="BackgroundImageFix" result="effect1_dropShadow_0_374"/>
<feBlend mode="normal" in="SourceGraphic" in2="effect1_dropShadow_0_374" result="shape"/>
</filter>
<filter id="filter6_d_0_374" x="-6" y="-3.23584" width="15.5312" height="36.2358" filterUnits="userSpaceOnUse" color-interpolation-filters="sRGB">
<feFlood flood-opacity="0" result="BackgroundImageFix"/>
<feColorMatrix in="SourceAlpha" type="matrix" values="0 0 0 0 0 0 0 0 0 0 0 0 0 0 0 0 0 0 127 0" result="hardAlpha"/>
<feOffset dy="4"/>
<feGaussianBlur stdDeviation="2"/>
<feComposite in2="hardAlpha" operator="out"/>
<feColorMatrix type="matrix" values="0 0 0 0 0 0 0 0 0 0 0 0 0 0 0 0 0 0 0.25 0"/>
<feBlend mode="normal" in2="BackgroundImageFix" result="effect1_dropShadow_0_374"/>
<feBlend mode="normal" in="SourceGraphic" in2="effect1_dropShadow_0_374" result="shape"/>
</filter>
<filter id="filter7_d_0_374" x="-6" y="7.70776" width="15.5312" height="22.9812" filterUnits="userSpaceOnUse" color-interpolation-filters="sRGB">
<feFlood flood-opacity="0" result="BackgroundImageFix"/>
<feColorMatrix in="SourceAlpha" type="matrix" values="0 0 0 0 0 0 0 0 0 0 0 0 0 0 0 0 0 0 127 0" result="hardAlpha"/>
<feOffset dy="4"/>
<feGaussianBlur stdDeviation="2"/>
<feComposite in2="hardAlpha" operator="out"/>
<feColorMatrix type="matrix" values="0 0 0 0 0 0 0 0 0 0 0 0 0 0 0 0 0 0 0.25 0"/>
<feBlend mode="normal" in2="BackgroundImageFix" result="effect1_dropShadow_0_374"/>
<feBlend mode="normal" in="SourceGraphic" in2="effect1_dropShadow_0_374" result="shape"/>
</filter>
<filter id="filter8_d_0_374" x="-6" y="7.13672" width="15.5312" height="24.1367" filterUnits="userSpaceOnUse" color-interpolation-filters="sRGB">
<feFlood flood-opacity="0" result="BackgroundImageFix"/>
<feColorMatrix in="SourceAlpha" type="matrix" values="0 0 0 0 0 0 0 0 0 0 0 0 0 0 0 0 0 0 127 0" result="hardAlpha"/>
<feOffset dy="4"/>
<feGaussianBlur stdDeviation="2"/>
<feComposite in2="hardAlpha" operator="out"/>
<feColorMatrix type="matrix" values="0 0 0 0 0 0 0 0 0 0 0 0 0 0 0 0 0 0 0.25 0"/>
<feBlend mode="normal" in2="BackgroundImageFix" result="effect1_dropShadow_0_374"/>
<feBlend mode="normal" in="SourceGraphic" in2="effect1_dropShadow_0_374" result="shape"/>
</filter>
</defs>
</svg>
