<svg width="31" height="19" viewBox="0 0 31 19" fill="none" xmlns="http://www.w3.org/2000/svg">
<path opacity="0.4" d="M15.5 2.2124C17.7 3.9999 19.075 6.7499 19.075 9.4999C19.075 12.3874 17.7 15.1374 15.5 16.7874C13.3 14.9999 11.925 12.2499 11.925 9.4999C11.925 6.6124 13.3 3.8624 15.5 2.2124ZM14.2625 1.3874C11.925 3.4499 10.55 6.3374 10.55 9.4999C10.55 12.6624 11.925 15.5499 14.2625 17.6124C9.72502 20.0874 4.08752 18.5749 1.47502 14.0374C-1.13748 9.4999 0.650023 3.8624 5.18752 1.3874C7.93752 -0.262598 11.5125 -0.262598 14.2625 1.3874ZM16.7375 17.6124C19.075 15.5499 20.45 12.6624 20.45 9.4999C20.45 6.3374 19.075 3.4499 16.7375 1.3874C21.275 -1.0876 26.9125 0.424902 29.525 4.9624C32 9.4999 30.4875 15.1374 25.95 17.7499C23.0625 19.2624 19.4875 19.2624 16.7375 17.6124Z" fill="white"/>
</svg>
