<svg width="18" height="21" viewBox="0 0 18 21" fill="none" xmlns="http://www.w3.org/2000/svg">
<path opacity="0.4" d="M17.1 6.5C17.6 7.4 17.7 8.5 17.4 9.8C16.7 13.6 14.1 14.9 10.9 14.9H10.4C10 14.9 9.7 15.2 9.6 15.6V15.8L9 19.8V20C8.9 20.4 8.6 20.7 8.2 20.7H4.7C4.4 20.7 4.2 20.5 4.2 20.2V20.1L4.4 19H5.9L6.8 13H8.2C12.9 13 16 10.8 17.1 6.5ZM14.1 1.4C14.9 2.3 15.1 3.2 14.9 4.7C14.9 4.8 14.9 4.9 14.8 5.1C14.1 8.9 11.7 10.5 7.8 10.5H6C5.4 10.5 4.8 10.9 4.6 11.5L3.7 17.4H0.0999999C0.0999999 17.4 0 17.4 0 17.3L2.7 0.8C2.7 0.3 3.1 0 3.6 0H9.6C11.8 0 13.3 0.5 14.1 1.4Z" fill="white"/>
</svg>
