<svg width="14" height="14" viewBox="0 0 14 14" fill="none" xmlns="http://www.w3.org/2000/svg">
<path d="M7.9134 0.39597C6.31824 0.17654 4.69756 0.541671 3.35062 1.42394C2.00367 2.30621 1.02143 3.64604 0.585264 5.19601C0.149099 6.74599 0.288469 8.40144 0.977639 9.85667C1.66681 11.3119 2.85923 12.4687 4.33473 13.1133C4.29483 12.6012 4.33145 12.086 4.4434 11.5846C4.56673 11.0253 5.3074 7.94264 5.3074 7.94264C5.15991 7.61203 5.0862 7.25328 5.0914 6.8913C5.0914 5.9013 5.66273 5.16264 6.3734 5.16264C6.50107 5.16078 6.62764 5.18643 6.74451 5.23786C6.86138 5.28928 6.96581 5.36527 7.0507 5.46065C7.13558 5.55604 7.19893 5.66858 7.23644 5.79063C7.27394 5.91268 7.28473 6.04138 7.26806 6.16797C7.26806 6.76797 6.88273 7.67597 6.6814 8.52797C6.64161 8.68422 6.63908 8.84764 6.67403 9.00505C6.70897 9.16246 6.7804 9.30945 6.88257 9.4342C6.98474 9.55894 7.11478 9.65793 7.26222 9.7232C7.40966 9.78847 7.57037 9.81819 7.7314 9.80997C8.99673 9.80997 9.84473 8.1893 9.84473 6.27597C9.84473 4.8093 8.8734 3.71064 7.08273 3.71064C6.65431 3.69399 6.22698 3.76459 5.82668 3.91814C5.42639 4.07169 5.06147 4.305 4.7541 4.6039C4.44672 4.90279 4.2033 5.26104 4.03861 5.65689C3.87392 6.05273 3.7914 6.47792 3.79606 6.90664C3.77698 7.38219 3.9304 7.84861 4.22806 8.21997C4.28368 8.26149 4.3243 8.31997 4.34378 8.38659C4.36326 8.45321 4.36055 8.52436 4.33606 8.5893C4.3054 8.71197 4.22806 9.00464 4.1974 9.11197C4.19102 9.14837 4.17618 9.18276 4.15408 9.21238C4.13198 9.24199 4.10323 9.26601 4.07015 9.28248C4.03707 9.29896 4.00059 9.30743 3.96363 9.30723C3.92668 9.30702 3.89029 9.29814 3.8574 9.2813C2.93473 8.91197 2.50006 7.89664 2.50006 6.7373C2.50006 4.8393 4.0894 2.5673 7.2694 2.5673C9.80006 2.5673 11.4827 4.41864 11.4827 6.39864C11.4827 9.00464 10.0314 10.964 7.88673 10.964C7.56619 10.9742 7.24824 10.9035 6.96228 10.7583C6.67633 10.6131 6.4316 10.3981 6.25073 10.1333C6.25073 10.1333 5.8654 11.6773 5.7894 11.9693C5.63426 12.4738 5.40533 12.9525 5.11006 13.39C5.7254 13.5766 6.36473 13.67 7.0074 13.6673C7.88312 13.668 8.75037 13.496 9.55951 13.161C10.3686 12.8261 11.1038 12.3348 11.7228 11.7154C12.3418 11.0959 12.8325 10.3605 13.1669 9.5511C13.5013 8.74173 13.6727 7.87436 13.6714 6.99864C13.6706 5.38864 13.0872 3.8333 12.0291 2.61982C10.971 1.40635 9.50962 0.61668 7.91473 0.396637L7.9134 0.39597Z" fill="#DBD4A5"/>
</svg>
