<svg width="45" height="15" viewBox="0 0 45 15" fill="none" xmlns="http://www.w3.org/2000/svg">
<path opacity="0.4" d="M40.7 14.9668L40.3333 12.7668H35.75L35.0167 14.7834H31.35C33.1833 10.5668 34.8333 6.3501 36.6667 2.13343C37.0333 1.4001 37.5833 1.03343 38.3167 1.03343C38.8667 1.03343 39.9667 1.03343 41.25 1.03343L44.1833 14.7834C44 14.9668 40.7 14.9668 40.7 14.9668ZM36.6667 10.0168H39.6L38.5 4.88343C38.6833 4.88343 36.6667 10.0168 36.6667 10.0168ZM13.0167 1.21676H16.6833L11 14.9668H7.15C6.23333 11.3001 5.31667 7.63343 4.4 3.96676C4.21667 3.23343 3.85 2.68343 3.11667 2.5001C2.56667 2.31676 1.46667 1.9501 0 1.58343V1.21676H5.86667C6.96667 1.21676 7.51667 1.76676 7.7 2.68343C7.88333 3.78343 8.43333 6.3501 9.16667 10.5668L13.0167 1.21676ZM21.8167 1.21676L18.8833 14.9668H15.4L18.3333 1.21676H21.8167ZM28.9667 0.850098C30.0667 0.850098 31.35 1.21676 32.0833 1.4001L31.5333 4.33343C30.8 3.96676 29.7 3.6001 28.7833 3.6001C27.3167 3.6001 26.5833 4.1501 26.5833 4.7001C26.5833 5.61676 28.05 5.98343 29.7 7.08343C31.5333 8.18343 31.7167 9.28343 31.7167 10.3834C31.7167 12.7668 29.7 14.9668 25.6667 14.9668C23.8333 14.9668 23.1 14.7834 21.6333 14.2334L22.3667 11.3001C23.8333 12.0334 24.5667 12.2168 25.85 12.2168C27.1333 12.2168 28.05 11.6668 28.05 10.9334C28.05 10.3834 27.6833 10.0168 26.4 9.28343C25.1167 8.5501 23.1 7.4501 23.1 5.43343C22.7333 2.68343 25.3 0.850098 28.9667 0.850098Z" fill="white"/>
</svg>
